<svg width="240" height="240" viewBox="0 0 240 240" fill="none" xmlns="http://www.w3.org/2000/svg">
<rect x="1" y="1" width="238" height="238" rx="119" stroke="#FEF8ED" stroke-width="2"/>
<circle cx="120" cy="120" r="113" stroke="#FEF8ED" stroke-width="4" stroke-dasharray="2 28"/>
<path d="M232.552 129.916L232.376 131.908L234.352 132.082C233.494 140.232 231.799 148.101 229.36 155.612L227.486 154.966L226.835 156.857C226.62 157.481 226.4 158.102 226.175 158.72L225.491 160.599L227.354 161.278C224.444 168.854 220.762 176.024 216.412 182.7L214.77 181.589L213.649 183.245C213.281 183.79 212.907 184.331 212.53 184.869L211.38 186.505L213.002 187.645C208.255 194.159 202.845 200.142 196.882 205.502L195.582 204.005L194.072 205.316C193.575 205.747 193.075 206.174 192.571 206.596L191.039 207.881L192.312 209.4C186.079 214.444 179.318 218.842 172.137 222.503L171.267 220.722L169.47 221.599C168.879 221.887 168.286 222.17 167.69 222.449L165.878 223.294L166.716 225.091C159.438 228.334 151.777 230.839 143.836 232.518L143.46 230.572L141.497 230.951C140.851 231.076 140.203 231.195 139.553 231.309L137.583 231.654L137.925 233.606C130.124 234.831 122.085 235.264 113.902 234.826L114.042 232.848L112.047 232.707C111.718 232.683 111.388 232.659 111.059 232.632C110.729 232.606 110.4 232.579 110.071 232.55L108.079 232.375L107.905 234.35C99.7548 233.492 91.885 231.797 84.3746 229.358L85.0199 227.484L83.1288 226.833C82.5054 226.618 81.8845 226.398 81.2663 226.173L79.387 225.489L78.7088 227.352C71.1323 224.442 63.9622 220.76 57.2862 216.41L58.3974 214.768L56.741 213.647C56.1964 213.279 55.6552 212.905 55.1176 212.528L53.481 211.378L52.3413 213C45.8274 208.253 39.8445 202.843 34.4842 196.88L35.9815 195.58L34.6704 194.07C34.2393 193.574 33.8126 193.073 33.3903 192.569L32.1056 191.037L30.586 192.31C25.5424 186.077 21.1442 179.316 17.4829 172.135L19.2646 171.265L18.3873 169.468C18.0991 168.877 17.8159 168.284 17.5378 167.688L16.692 165.876L14.8954 166.714C11.652 159.436 9.14701 151.775 7.46806 143.834L9.41454 143.458L9.03516 141.495C8.91037 140.849 8.79113 140.201 8.67748 139.551L8.33277 137.581L6.37995 137.923C5.1554 130.122 4.7226 122.083 5.16073 113.9L7.13872 114.04L7.27975 112.045C7.30302 111.716 7.32773 111.386 7.35389 111.057C7.38004 110.727 7.40759 110.398 7.43652 110.069L7.6118 108.077L5.6365 107.903C6.49405 99.7528 8.18883 91.883 10.628 84.3726L12.5025 85.018L13.1535 83.1269C13.3682 82.5034 13.5881 81.8825 13.8131 81.2644L14.4974 79.385L12.6345 78.7068C15.5444 71.1304 19.2259 63.9603 23.5763 57.2842L25.2182 58.3954L26.3392 56.7391C26.7078 56.1944 27.081 55.6532 27.4587 55.1156L28.6084 53.4791L26.9861 52.3394C31.7337 45.8255 37.1429 39.8426 43.1062 34.4822L44.406 35.9795L45.9163 34.6684C46.4128 34.2374 46.913 33.8107 47.417 33.3883L48.9498 32.1036L47.6762 30.5841C53.9097 25.5404 60.6706 21.1422 67.8515 17.481L68.7212 19.2627L70.5185 18.3853C71.109 18.0971 71.7022 17.8139 72.2982 17.5358L74.1105 16.6901L73.2721 14.8935C80.5506 11.6501 88.2115 9.14505 96.1519 7.46611L96.5279 9.41258L98.4916 9.03321C99.1376 8.90842 99.7853 8.78917 100.435 8.67552L102.405 8.33081L102.063 6.378C109.864 5.15344 117.903 4.72064 126.086 5.15878L125.946 7.13677L127.941 7.27779C128.271 7.30107 128.6 7.32578 128.93 7.35194C129.259 7.37809 129.589 7.40564 129.917 7.43456L131.91 7.60984L132.084 5.63455C140.234 6.4921 148.103 8.18688 155.614 10.6261L154.968 12.5006L156.859 13.1516C157.483 13.3662 158.104 13.5861 158.722 13.8112L160.601 14.4954L161.28 12.6326C168.856 15.5424 176.026 19.224 182.702 23.5744L181.591 25.2163L183.247 26.3372C183.792 26.7058 184.333 27.079 184.871 27.4567L186.507 28.6064L187.647 26.9841C194.161 31.7318 200.144 37.1409 205.504 43.1043L204.007 44.404L205.318 45.9143C205.749 46.4109 206.176 46.9111 206.598 47.415L207.883 48.9478L209.402 47.6742C214.446 53.9077 218.844 60.6686 222.505 67.8496L220.724 68.7193L221.601 70.5166C221.889 71.107 222.172 71.7003 222.45 72.2962L223.296 74.1086L225.093 73.2702C228.336 80.5486 230.841 88.2095 232.52 96.1499L230.574 96.526L230.953 98.4897C231.078 99.1356 231.197 99.7834 231.311 100.433L231.656 102.403L233.608 102.061C234.833 109.862 235.266 117.901 234.828 126.084L232.85 125.944L232.709 127.939C232.685 128.269 232.661 128.598 232.634 128.928C232.608 129.257 232.581 129.587 232.552 129.916Z" stroke="#FEF8ED" stroke-width="4" stroke-linecap="square" stroke-dasharray="2 28"/>
</svg>
