<svg width="248" height="248" viewBox="0 0 248 248" fill="none" xmlns="http://www.w3.org/2000/svg">
<g filter="url(#filter0_d_118_998)">
<rect x="4" width="240" height="240" rx="120" fill="#F8EBE6" shape-rendering="crispEdges"/>
<path d="M232 120C232 134.183 229.206 148.227 223.779 161.33C218.351 174.433 210.396 186.339 200.368 196.368C190.339 206.396 178.433 214.351 165.33 219.779C152.227 225.206 138.183 228 124 228C109.817 228 95.7733 225.206 82.6702 219.779C69.567 214.351 57.6612 206.396 47.6325 196.368C37.6037 186.339 29.6485 174.433 24.221 161.33C18.7935 148.227 16 134.183 16 120C16 105.817 18.7935 91.7733 24.221 78.6702C29.6485 65.567 37.6037 53.6612 47.6325 43.6325C57.6612 33.6037 69.567 25.6485 82.6702 20.221C95.7734 14.7935 109.817 12 124 12C138.183 12 152.227 14.7935 165.33 20.221C178.433 25.6485 190.339 33.6038 200.368 43.6325C210.396 53.6612 218.351 65.567 223.779 78.6702C229.207 91.7734 232 105.817 232 120L232 120Z" stroke="#D2714E" stroke-width="4" stroke-dasharray="40 20"/>
<path d="M220 120C220 132.607 217.517 145.09 212.692 156.738C207.868 168.385 200.797 178.968 191.882 187.882C182.968 196.797 172.385 203.868 160.738 208.692C149.09 213.517 136.607 216 124 216C111.393 216 98.9096 213.517 87.2624 208.692C75.6151 203.868 65.0322 196.797 56.1177 187.882C47.2033 178.968 40.132 168.385 35.3076 156.738C30.4831 145.09 28 132.607 28 120C28 107.393 30.4831 94.9096 35.3076 83.2624C40.132 71.6151 47.2033 61.0322 56.1178 52.1177C65.0322 43.2033 75.6151 36.132 87.2624 31.3076C98.9097 26.4831 111.393 24 124 24C136.607 24 149.09 26.4831 160.738 31.3076C172.385 36.132 182.968 43.2033 191.882 52.1178C200.797 61.0322 207.868 71.6151 212.692 83.2624C217.517 94.9097 220 107.393 220 120L220 120Z" stroke="#D2714E" stroke-width="4" stroke-linecap="square" stroke-dasharray="0.12 20"/>
</g>
<defs>
<filter id="filter0_d_118_998" x="0" y="0" width="248" height="248" filterUnits="userSpaceOnUse" color-interpolation-filters="sRGB">
<feFlood flood-opacity="0" result="BackgroundImageFix"/>
<feColorMatrix in="SourceAlpha" type="matrix" values="0 0 0 0 0 0 0 0 0 0 0 0 0 0 0 0 0 0 127 0" result="hardAlpha"/>
<feOffset dy="4"/>
<feGaussianBlur stdDeviation="2"/>
<feComposite in2="hardAlpha" operator="out"/>
<feColorMatrix type="matrix" values="0 0 0 0 0 0 0 0 0 0 0 0 0 0 0 0 0 0 0.25 0"/>
<feBlend mode="normal" in2="BackgroundImageFix" result="effect1_dropShadow_118_998"/>
<feBlend mode="normal" in="SourceGraphic" in2="effect1_dropShadow_118_998" result="shape"/>
</filter>
</defs>
</svg>
