<svg width="240" height="240" viewBox="0 0 240 240" fill="none" xmlns="http://www.w3.org/2000/svg">
<rect x="6" y="6" width="228" height="228" rx="114" stroke="#DFFAFE" stroke-width="12" stroke-linecap="square" stroke-dasharray="20 36"/>
<path d="M216.201 93.7574C230.491 147.091 198.841 201.911 145.508 216.201C92.1745 230.492 37.3545 198.841 23.0639 145.508C8.77335 92.175 40.4237 37.355 93.7569 23.0644C147.09 8.77384 201.91 40.4242 216.201 93.7574Z" stroke="#DFFAFE" stroke-width="2"/>
<path d="M198.08 48.3202C208.266 59.417 216.215 72.8415 221.001 88.0579L215.278 89.8581C215.713 91.2411 216.12 92.64 216.499 94.0546C216.878 95.4692 217.225 96.8844 217.54 98.2995L223.397 96.9968C226.86 112.568 226.688 128.168 223.415 142.871L217.558 141.568C216.925 144.413 216.169 147.223 215.293 149.99L221.014 151.8C216.351 166.541 208.508 180.125 198.073 191.534L193.646 187.485C191.687 189.626 189.632 191.686 187.484 193.657L191.542 198.078C180.445 208.263 167.02 216.213 151.804 220.999L150.004 215.275C148.621 215.71 147.222 216.118 145.807 216.497C144.393 216.876 142.977 217.223 141.562 217.537L142.865 223.394C127.294 226.858 111.693 226.685 96.9905 223.413L98.2941 217.556C95.4487 216.923 92.6387 216.166 89.8716 215.291L88.062 221.011C73.3207 216.348 59.7368 208.506 48.3278 198.071L52.3772 193.643C50.2356 191.685 48.1755 189.629 46.2043 187.482L41.7841 191.539C31.5986 180.442 23.6489 167.018 18.8628 151.801L24.5864 150.001C24.1514 148.618 23.744 147.219 23.365 145.805C22.9859 144.39 22.6393 142.975 22.3245 141.56L16.4676 142.863C13.0043 127.292 13.1767 111.691 16.4492 96.9881L22.3058 98.2916C22.9391 95.4463 23.6956 92.6363 24.5709 89.8691L18.8503 88.0596C23.5134 73.3183 31.3561 59.7343 41.7909 48.3253L46.2183 52.3747C48.1771 50.2331 50.2324 48.173 52.3799 46.2019L48.3226 41.7816C59.4194 31.5962 72.8439 23.6464 88.0603 18.8604L89.8606 24.5839C91.2435 24.149 92.6425 23.7415 94.057 23.3625C95.4716 22.9835 96.8868 22.6368 98.302 22.3221L96.9993 16.4652C112.57 13.0018 128.171 13.1743 142.874 16.4467L141.57 22.3034C144.416 22.9367 147.226 23.6932 149.993 24.5685L151.802 18.8479C166.544 23.511 180.127 31.3536 191.536 41.7884L187.487 46.2159C189.629 48.1746 191.689 50.2299 193.66 52.3774L198.08 48.3202Z" stroke="#DFFAFE" stroke-width="12" stroke-dasharray="8 40"/>
<path d="M231.054 90.2433C247.488 151.577 211.09 214.619 149.757 231.054C88.4235 247.488 25.3805 211.09 8.94633 149.757C-7.48786 88.4235 28.91 25.3805 90.2433 8.94633C151.577 -7.48786 214.619 28.91 231.054 90.2433Z" stroke="#DFFAFE" stroke-width="2"/>
</svg>
