<svg width="60" height="50" viewBox="0 0 60 50" fill="none" xmlns="http://www.w3.org/2000/svg">
<path d="M21.5964 37.9505C21.5964 43.2238 17.3215 47.4986 12.0482 47.4986C6.77486 47.4986 2.49999 43.2238 2.49999 37.9505C2.49999 32.6772 6.77486 28.4023 12.0482 28.4023C17.3215 28.4023 21.5964 32.6772 21.5964 37.9505Z" fill="#A4ECFB" stroke="#055F71" stroke-width="4.99999"/>
<path d="M56.777 37.9505C56.777 43.2238 52.5022 47.4986 47.2289 47.4986C41.9555 47.4986 37.6807 43.2238 37.6807 37.9505C37.6807 32.6772 41.9555 28.4023 47.2289 28.4023C52.5022 28.4023 56.777 32.6772 56.777 37.9505Z" fill="#A4ECFB" stroke="#055F71" stroke-width="4.99999"/>
<path d="M39.1867 12.0482C39.1867 17.3214 34.9119 21.5963 29.6385 21.5963C24.3652 21.5963 20.0903 17.3214 20.0903 12.0482C20.0903 6.77486 24.3652 2.49999 29.6385 2.49999C34.9119 2.49999 39.1867 6.77486 39.1867 12.0482Z" fill="#F2FCFE" stroke="#055F71" stroke-width="4.99999"/>
</svg>
