<svg width="300" height="300" viewBox="0 0 300 300" fill="none" xmlns="http://www.w3.org/2000/svg">
<path d="M97.6406 190.875L63.8789 163.342H63.8437L36.416 191.291L50.4844 269.268C51.4863 274.846 56.3437 278.906 62.0156 278.906H111.656V233.438L97.6406 190.875Z" fill="#A4ECFB"/>
<path d="M121.307 163.342H121.271L97.6406 190.875L111.656 278.906H149.742L156.25 237.813L149.742 191.314L121.307 163.342Z" fill="#F2FCFE"/>
<path d="M178.729 163.342H178.693L150 191.32C149.912 191.32 149.83 191.32 149.742 191.314V278.906H187.828L199.687 232.5L201.861 190.781L178.729 163.342Z" fill="#F2FCFE"/>
<path d="M268.102 83.4901L216.229 37.4237C170.024 13.1219 112.993 15.6051 68.4902 46.1014L22.3477 97.7518C11.8945 117.492 6 139.828 6 163.26H6.01172C6.4125 179.112 19.6811 191.888 35.9707 191.209C50.9941 190.558 63.0176 178.353 63.3984 163.26H63.4336C63.876 180.739 79.7842 193.891 97.1953 190.793C110.402 188.443 120.475 177.058 120.826 163.26H120.861C121.254 178.687 133.805 191.103 149.297 191.232C149.385 191.238 149.467 191.238 149.555 191.238C165.164 191.238 177.855 178.775 178.248 163.26H178.283C178.685 178.81 191.404 191.238 206.982 191.238C222.592 191.238 235.283 178.775 235.676 163.26H235.711C236.102 178.825 248.841 191.238 264.404 191.238C280.014 191.238 292.705 178.775 293.098 163.26H293.109C293.109 134.021 283.91 106.441 268.102 83.4901Z" fill="#F2FCFE"/>
<path d="M268.547 83.5723C262.506 88.4707 254.807 91.4062 246.422 91.4062C227.004 91.4062 211.266 75.668 211.266 56.25C211.266 49.3594 213.252 42.9316 216.674 37.5059C237.563 48.4805 255.357 64.4121 268.547 83.5723Z" fill="#F2FCFE"/>
<path d="M68.9355 46.1836C73.6699 52.1777 76.5 59.7422 76.5 67.9688C76.5 87.3867 60.7617 103.125 41.3437 103.125C34.5352 103.125 28.1777 101.186 22.793 97.834C33.7148 77.2148 49.6055 59.4258 68.9355 46.1836Z" fill="#F2FCFE"/>
<path d="M236.156 163.342H236.121L201.861 190.781L187.828 278.906H237.475C243.146 278.906 247.998 274.846 249.006 269.268L263.074 191.262L236.156 163.342Z" fill="#A4ECFB"/>
<path d="M150 15.2344C66.4928 15.2344 0.585938 83.4985 0.585938 163.344C0.585938 179.526 13.435 195.092 31.4918 196.983L44.717 270.308C46.2281 278.685 53.5031 284.766 62.0156 284.766H237.474C245.987 284.766 253.262 278.685 254.773 270.308L267.99 197.031C285.311 195.478 298.76 181.21 299.39 163.878C299.406 163.702 299.414 163.524 299.414 163.344C299.414 83.4334 233.499 15.2344 150 15.2344ZM260.444 81.9855C256.179 84.3246 251.417 85.5469 246.424 85.5469C225.168 85.5469 211.772 63.9375 219.17 45.4529C235.289 54.7682 249.336 67.2293 260.444 81.9855ZM67.2984 54.3668C69.4945 58.5316 70.643 63.15 70.643 67.9688C70.643 89.1404 49.173 102.562 30.7066 95.284C40.0207 79.3283 52.5064 65.4088 67.2984 54.3668ZM56.2488 268.227L43.2609 196.218C51.6773 194.197 59.0092 189.081 63.8619 181.867C70.732 192.075 81.7248 197.195 92.7111 197.163L104.793 273.047H62.0156C59.1779 273.047 56.7527 271.02 56.2488 268.227ZM155.604 273.047V196.712C164.548 195.264 173.02 190.329 178.712 181.867C182.985 188.219 188.827 192.589 195.26 194.988L182.831 273.047H155.604ZM143.885 273.047H116.659L104.258 195.157C110.874 192.806 116.9 188.388 121.287 181.867C126.858 190.148 135.118 195.075 143.885 196.632V273.047ZM243.241 268.227C242.737 271.02 240.312 273.047 237.474 273.047H194.697L206.782 197.156C217.92 197.358 229.138 192.267 236.138 181.867C240.887 188.926 248.024 193.997 256.25 196.1L243.241 268.227ZM287.687 163.196C287.371 175.68 277.339 185.459 264.85 185.459C252.361 185.459 242.33 175.68 242.013 163.196C241.932 160.018 239.296 157.485 236.118 157.485C232.94 157.485 230.341 160.018 230.261 163.196C229.944 175.68 219.913 185.459 207.424 185.459C195.002 185.459 184.905 175.74 184.588 163.196C184.507 160.018 181.87 157.485 178.692 157.485C175.514 157.485 172.915 160.018 172.835 163.196C172.519 175.68 162.488 185.459 149.998 185.459C137.508 185.459 127.478 175.68 127.162 163.196C127.081 160.018 124.445 157.485 121.266 157.485C118.088 157.485 115.489 160.018 115.409 163.196C115.093 175.68 105.062 185.459 92.5723 185.459C80.0836 185.459 70.0523 175.68 69.7359 163.196C69.6551 160.018 67.0189 157.485 63.8408 157.485C60.6627 157.485 58.0641 160.018 57.9832 163.196C57.6668 175.68 47.6361 185.459 35.1469 185.459C22.6576 185.459 12.6258 175.68 12.31 163.196C12.3082 163.131 12.3053 163.067 12.3018 163.004C12.3527 142.533 16.9893 123.114 25.2305 105.686C52.1689 117.202 82.3582 97.3992 82.3582 67.9688C82.3582 60.76 80.5236 53.8705 77.0227 47.7346C117.076 22.8416 166.854 20.3455 208.759 40.0137C206.559 45.1154 205.409 50.6297 205.409 56.25C205.409 87.7811 239.747 107.6 267.095 91.6646C280.09 112.416 287.629 136.855 287.694 163.003C287.691 163.067 287.688 163.131 287.687 163.196Z" fill="#055F71"/>
</svg>
