<svg width="240" height="240" viewBox="0 0 240 240" fill="none" xmlns="http://www.w3.org/2000/svg">
<path d="M220.5 81.7275C202.534 22.0125 162.863 11.25 120 11.25C77.1375 11.25 37.4662 22.0125 19.5 81.7275C18.34 85.5381 18.524 89.6314 20.0213 93.3225L56.3475 180.656C56.6939 181.686 57.2948 182.612 58.0946 183.348C58.8944 184.083 59.8671 184.605 60.9224 184.864C61.9776 185.123 63.0813 185.112 64.1309 184.831C65.1806 184.549 66.1421 184.007 66.9263 183.255L72.9788 177.484C78.8717 171.713 86.7701 168.449 95.0175 168.375H144.982C153.228 168.445 161.126 171.704 167.021 177.469L173.074 183.24C173.858 183.992 174.819 184.534 175.869 184.816C176.919 185.097 178.022 185.108 179.078 184.849C180.133 184.59 181.106 184.068 181.905 183.333C182.705 182.597 183.306 181.671 183.652 180.641L219.979 93.3075C221.472 89.6209 221.656 85.5334 220.5 81.7275Z" fill="#FFE7C8"/>
<path d="M75 210H165V221.25C165 223.239 164.21 225.147 162.803 226.553C161.397 227.96 159.489 228.75 157.5 228.75H82.5C80.5109 228.75 78.6032 227.96 77.1967 226.553C75.7902 225.147 75 223.239 75 221.25V210Z" fill="#FFD8A4"/>
<path d="M148 31.875C148 34.9126 145.538 37.375 142.5 37.375C139.462 37.375 137 34.9126 137 31.875C137 28.8374 139.462 26.375 142.5 26.375C145.538 26.375 148 28.8374 148 31.875Z" fill="#371F00" stroke="#371F00" stroke-width="4"/>
<path d="M142.5 69.3753C137.058 69.3791 131.695 68.064 126.872 65.5424C122.049 63.0208 117.909 59.3679 114.806 54.8965C114.204 54.0896 113.77 53.1696 113.531 52.1915C113.292 51.2134 113.252 50.1971 113.414 49.2032C113.576 48.2094 113.937 47.2584 114.474 46.4069C115.012 45.5554 115.715 44.8208 116.543 44.247C117.37 43.6732 118.305 43.2719 119.29 43.067C120.276 42.8622 121.293 42.8579 122.281 43.0545C123.269 43.2512 124.206 43.6446 125.039 44.2115C125.871 44.7784 126.58 45.507 127.125 46.354C128.849 48.8302 131.146 50.8529 133.821 52.2497C136.495 53.6465 139.468 54.3759 142.485 54.3759C145.502 54.3759 148.475 53.6465 151.149 52.2497C153.824 50.8529 156.121 48.8302 157.845 46.354C158.406 45.5442 159.121 44.8527 159.949 44.3192C160.777 43.7856 161.702 43.4204 162.671 43.2444C163.641 43.0684 164.635 43.085 165.598 43.2933C166.561 43.5016 167.473 43.8975 168.283 44.4584C169.093 45.0193 169.784 45.7342 170.318 46.5624C170.852 47.3905 171.217 48.3156 171.393 49.2849C171.569 50.2541 171.552 51.2486 171.344 52.2114C171.136 53.1743 170.74 54.0867 170.179 54.8965C167.078 59.3658 162.94 63.0174 158.12 65.5389C153.299 68.0604 147.94 69.3767 142.5 69.3753Z" fill="#371F00"/>
<path d="M130.819 199.056C130.817 200.789 130.398 202.497 129.597 204.035C128.797 205.572 127.638 206.895 126.219 207.891C124.8 208.887 123.163 209.528 121.444 209.758C119.726 209.988 117.978 209.802 116.346 209.215C114.715 208.628 113.249 207.657 112.072 206.385C110.894 205.112 110.04 203.575 109.582 201.903C109.123 200.232 109.073 198.474 109.436 196.779C109.799 195.084 110.564 193.5 111.668 192.163C111.72 192.5 111.842 192.823 112.024 193.112C112.206 193.401 112.445 193.649 112.726 193.842C113.008 194.036 113.325 194.169 113.66 194.235C113.995 194.301 114.34 194.298 114.674 194.227C115.007 194.155 115.323 194.016 115.601 193.818C115.879 193.62 116.114 193.367 116.291 193.075C116.468 192.784 116.583 192.459 116.631 192.121C116.678 191.783 116.655 191.439 116.565 191.109C116.279 189.756 116.4 188.349 116.913 187.064C117.425 185.78 118.306 184.675 119.445 183.891C119.445 183.891 130.819 193.059 130.819 199.056Z" fill="#FFC06D"/>
<path d="M120 7.5C79.41 7.5 35.3025 16.1888 15.9113 80.6475C14.4941 85.2879 14.7233 90.2754 16.56 94.7663L52.875 182.096C53.5146 183.722 54.5429 185.166 55.87 186.303C57.1972 187.439 58.7826 188.232 60.4875 188.614C61.3141 188.806 62.1667 188.862 63.0113 188.779L71.25 210.679V221.25C71.25 224.234 72.4353 227.095 74.5451 229.205C76.6549 231.315 79.5163 232.5 82.5 232.5H157.5C160.484 232.5 163.345 231.315 165.455 229.205C167.565 227.095 168.75 224.234 168.75 221.25V210.679L176.97 188.801C177.818 188.847 178.669 188.784 179.501 188.614C181.205 188.227 182.79 187.432 184.118 186.297C185.446 185.161 186.478 183.72 187.125 182.096L223.448 94.7663C225.284 90.2754 225.513 85.2879 224.096 80.6475C204.698 16.1888 160.59 7.5 120 7.5ZM161.25 221.25C161.25 222.245 160.855 223.198 160.152 223.902C159.448 224.605 158.495 225 157.5 225H82.5C81.5055 225 80.5516 224.605 79.8484 223.902C79.1451 223.198 78.75 222.245 78.75 221.25V213.75H161.25V221.25ZM120.188 190.148C120.136 189.934 120.118 189.714 120.135 189.495C123.818 193.016 127.069 197.115 127.069 199.057C127.062 200.934 126.31 202.73 124.979 204.052C123.648 205.374 121.846 206.113 119.97 206.108C118.958 206.076 117.964 205.833 117.051 205.395C116.139 204.956 115.328 204.331 114.672 203.561C114.015 202.79 113.527 201.89 113.239 200.92C112.951 199.949 112.869 198.929 112.999 197.925C114.018 198.106 115.065 198.041 116.055 197.737C117.044 197.432 117.946 196.896 118.688 196.174C119.47 195.406 120.025 194.437 120.29 193.373C120.554 192.309 120.519 191.192 120.188 190.148ZM162.405 206.25H132.585C133.868 204.069 134.553 201.588 134.569 199.057C134.569 191.827 124.793 183.386 121.796 180.975C121.21 180.502 120.496 180.217 119.745 180.156C118.995 180.095 118.243 180.262 117.589 180.634C116.231 181.502 115.087 182.666 114.243 184.039C113.398 185.412 112.876 186.958 112.714 188.561C112.018 188.361 111.279 188.366 110.587 188.576C109.894 188.787 109.277 189.193 108.81 189.746C106.891 192.011 105.726 194.818 105.48 197.776C105.233 200.734 105.916 203.695 107.434 206.246H77.595L69.855 185.64L75.5663 180.195C80.7656 175.095 87.7353 172.204 95.0175 172.125H144.986C152.265 172.202 159.232 175.088 164.434 180.18L170.145 185.629L162.405 206.25ZM216.514 91.875L180.191 179.213C179.306 181.14 177.533 182.156 175.661 180.54L169.609 174.75C163.013 168.327 154.192 164.7 144.986 164.625H95.0175C85.8099 164.696 76.9863 168.324 70.3913 174.75L64.3388 180.521C62.4638 182.134 60.6938 181.121 59.8088 179.197L23.4863 91.875C22.3344 88.979 22.2021 85.7773 23.1113 82.7962C41.0175 23.2125 80.25 15 120 15C159.75 15 198.983 23.2125 216.908 82.8075C217.808 85.7872 217.669 88.9845 216.514 91.875Z" fill="#1E120B"/>
<path d="M49.1437 53.8593C48.3192 53.3035 47.3077 53.0979 46.3316 53.2878C45.3555 53.4776 44.4948 54.0474 43.9387 54.8718C39.0303 62.3385 35.1007 70.4044 32.2462 78.8718C32.0698 79.34 31.9889 79.8388 32.0082 80.3387C32.0275 80.8387 32.1467 81.3297 32.3587 81.7829C32.5707 82.2361 32.8713 82.6423 33.2427 82.9776C33.6141 83.3128 34.0488 83.5704 34.5213 83.735C34.9938 83.8997 35.4944 83.9681 35.9937 83.9364C36.493 83.9046 36.981 83.7732 37.4287 83.5499C37.8765 83.3267 38.275 83.0161 38.6009 82.6364C38.9268 82.2567 39.1734 81.8157 39.3262 81.3393C41.9581 73.4745 45.5971 65.9835 50.1525 59.053C50.7051 58.2298 50.9092 57.2213 50.7202 56.2479C50.5312 55.2746 49.9643 54.4158 49.1437 53.8593Z" fill="#371F00" stroke="#371F00" stroke-width="2"/>
<path d="M56.25 48.75C58.3211 48.75 60 47.0711 60 45C60 42.9289 58.3211 41.25 56.25 41.25C54.1789 41.25 52.5 42.9289 52.5 45C52.5 47.0711 54.1789 48.75 56.25 48.75Z" fill="#371F00"/>
</svg>
