<svg width="240" height="240" viewBox="0 0 240 240" fill="none" xmlns="http://www.w3.org/2000/svg">
<path d="M240 120C240 186.274 186.274 240 120 240C53.7258 240 0 186.274 0 120C0 53.7258 53.7258 0 120 0C186.274 0 240 53.7258 240 120ZM21.6 120C21.6 174.345 65.6552 218.4 120 218.4C174.345 218.4 218.4 174.345 218.4 120C218.4 65.6552 174.345 21.6 120 21.6C65.6552 21.6 21.6 65.6552 21.6 120Z" fill="#EDF2F5"/>
<mask id="path-2-inside-1_17_548" fill="white">
<path d="M235 120C235 183.513 183.513 235 120 235C56.4873 235 5 183.513 5 120C5 56.4873 56.4873 5 120 5C183.513 5 235 56.4873 235 120ZM16.5 120C16.5 177.161 62.8385 223.5 120 223.5C177.161 223.5 223.5 177.161 223.5 120C223.5 62.8385 177.161 16.5 120 16.5C62.8385 16.5 16.5 62.8385 16.5 120Z"/>
</mask>
<path d="M235 120C235 183.513 183.513 235 120 235C56.4873 235 5 183.513 5 120C5 56.4873 56.4873 5 120 5C183.513 5 235 56.4873 235 120ZM16.5 120C16.5 177.161 62.8385 223.5 120 223.5C177.161 223.5 223.5 177.161 223.5 120C223.5 62.8385 177.161 16.5 120 16.5C62.8385 16.5 16.5 62.8385 16.5 120Z" fill="#050E15" stroke="#EDF2F5" stroke-width="8" stroke-dasharray="6 6" mask="url(#path-2-inside-1_17_548)"/>
</svg>
