<svg width="244" height="244" viewBox="0 0 244 244" fill="none" xmlns="http://www.w3.org/2000/svg">
<rect x="2" y="2" width="240" height="240" rx="120" stroke="#142A24" stroke-width="4"/>
<mask id="path-2-inside-1_96_841" fill="white">
<path d="M2 122C2 55.7258 55.7258 2 122 2C188.274 2 242 55.7258 242 122C242 188.274 188.274 242 122 242C55.7258 242 2 188.274 2 122Z"/>
</mask>
<path d="M2 122C2 55.7258 55.7258 2 122 2C188.274 2 242 55.7258 242 122C242 188.274 188.274 242 122 242C55.7258 242 2 188.274 2 122Z" fill="#CBE7DF"/>
<path d="M2 2H242H2ZM242 184C242 250.274 188.274 304 122 304C55.7258 304 2 250.274 2 184V122C2 154.033 55.7258 180 122 180C188.274 180 242 154.033 242 122V184ZM2 242V2V242ZM242 2V242V2Z" fill="#142A24" mask="url(#path-2-inside-1_96_841)"/>
</svg>
