<svg xmlns="http://www.w3.org/2000/svg" width="262" height="300" viewBox="0 0 262 300" fill="none">
  <path d="M33.963 0C15.2874 0 0 15.246 0 33.871V266.129C0 284.754 15.2874 300 33.963 300H228.037C246.713 300 262 284.754 262 266.129V33.871C262 15.246 246.713 0 228.037 0H33.963ZM33.963 16.129H228.037C238.033 16.129 245.827 23.9025 245.827 33.871V176.084C244.909 176.188 244.016 176.448 243.186 176.852L148.481 224.524C136.973 230.317 123.41 230.317 111.902 224.524L17.1963 176.852C16.8635 176.711 16.5216 176.592 16.1728 176.496V33.871C16.1728 23.9025 23.9674 16.129 33.963 16.129ZM245.827 193.591V266.129C245.827 276.098 238.033 283.871 228.037 283.871H33.963C23.9674 283.871 16.1728 276.098 16.1728 266.129V194.405L104.615 238.921C120.693 247.013 139.69 247.013 155.768 238.921L245.827 193.591Z" fill="#F2F2F2"/>
</svg>