<svg width="1440" height="381" viewBox="0 0 1440 381" fill="none" xmlns="http://www.w3.org/2000/svg">
<path d="M720 379C649.285 379 594.486 365.558 539.477 352.058L539.42 352.044C484.429 338.548 429.223 325 358 325C286.9 325 196.307 333.261 123.539 341.513C87.1439 345.64 55.1882 349.767 32.3306 352.862C20.9017 354.409 11.7467 355.699 5.44817 356.602C3.98686 356.812 2.67929 357 1.53273 357.167C1.60344 357.092 1.67497 357.017 1.74731 356.941C4.49582 354.046 8.41799 349.824 13.1227 344.509C22.53 333.879 35.0762 318.863 47.6267 301.319C72.6472 266.342 98 220.889 98 180C98 139.111 72.6472 93.6581 47.6267 58.6812C35.0762 41.1366 22.53 26.1205 13.1227 15.4913C8.43269 10.1922 4.52034 5.98051 1.77311 3.08629C2.84075 3.2787 4.04075 3.49399 5.36767 3.73065C11.6591 4.85276 20.8039 6.45543 32.2217 8.37847C55.0566 12.2245 86.9856 17.3524 123.364 22.4804C196.096 32.7328 286.711 43 358 43C429.327 43 484.407 32.7217 539.326 22.4738L539.367 22.4661C594.293 12.2166 649.061 2 720 2C790.939 2 845.707 12.2166 900.633 22.4661L900.674 22.4737C955.593 32.7217 1010.67 43 1082 43C1153.29 43 1243.9 32.7328 1316.64 22.4804C1353.01 17.3524 1384.94 12.2245 1407.78 8.37847C1419.2 6.45543 1428.34 4.85276 1434.63 3.73065C1436.16 3.45876 1437.51 3.21508 1438.69 3.00189C1438.64 3.0641 1438.59 3.12693 1438.53 3.19039C1436 6.12275 1432.4 10.3958 1428.07 15.7689C1419.41 26.5129 1407.87 41.6659 1396.33 59.3006C1373.31 94.4645 1350 139.895 1350 180C1350 220.105 1373.31 265.535 1396.33 300.699C1407.87 318.334 1419.41 333.487 1428.07 344.231C1432.4 349.604 1436 353.877 1438.53 356.81C1438.66 356.952 1438.78 357.092 1438.89 357.229C1437.65 357.048 1436.2 356.838 1434.55 356.602C1428.25 355.699 1419.1 354.409 1407.67 352.862C1384.81 349.767 1352.86 345.64 1316.46 341.513C1243.69 333.261 1153.1 325 1082 325C1010.78 325 955.571 338.548 900.58 352.044L900.523 352.058C845.514 365.558 790.715 379 720 379Z" fill="#080D10" fill-opacity="0.5" stroke="#FFFFC1" stroke-width="2"/>
</svg>
