<svg xmlns="http://www.w3.org/2000/svg" width="18" height="19" viewBox="0 0 18 19" fill="none">
  <path d="M7.79999 2.29999C4.49339 2.29999 1.79999 4.99339 1.79999 8.29999C1.79999 11.6066 4.49339 14.3 7.79999 14.3C9.23789 14.3 10.5584 13.7894 11.5933 12.9418L15.1758 16.5242C15.2311 16.5818 15.2973 16.6278 15.3706 16.6594C15.4438 16.6911 15.5227 16.7078 15.6025 16.7087C15.6823 16.7095 15.7615 16.6943 15.8354 16.6642C15.9093 16.634 15.9765 16.5894 16.0329 16.5329C16.0894 16.4765 16.134 16.4093 16.1642 16.3354C16.1943 16.2615 16.2095 16.1823 16.2087 16.1025C16.2078 16.0227 16.1911 15.9438 16.1594 15.8706C16.1278 15.7973 16.0818 15.7311 16.0242 15.6758L12.4418 12.0933C13.2894 11.0584 13.8 9.73789 13.8 8.29999C13.8 4.99339 11.1066 2.29999 7.79999 2.29999ZM7.79999 3.49999C10.4581 3.49999 12.6 5.64191 12.6 8.29999C12.6 10.9581 10.4581 13.1 7.79999 13.1C5.14191 13.1 2.99999 10.9581 2.99999 8.29999C2.99999 5.64191 5.14191 3.49999 7.79999 3.49999Z" fill="#E7D5AE"/>
</svg>