<svg width="240" height="240" viewBox="0 0 240 240" fill="none" xmlns="http://www.w3.org/2000/svg">
<circle cx="120" cy="120" r="114" transform="rotate(6.5 120 120)" stroke="#FFF4EE" stroke-width="6" stroke-linecap="square" stroke-dasharray="4 20"/>
<mask id="path-3-inside-1_32_9" fill="white">
<path d="M240 120C240 186.274 186.274 240 120 240C53.7258 240 0 186.274 0 120C0 53.7258 53.7258 0 120 0C186.274 0 240 53.7258 240 120ZM12 120C12 179.647 60.3532 228 120 228C179.647 228 228 179.647 228 120C228 60.3532 179.647 12 120 12C60.3532 12 12 60.3532 12 120Z"/>
</mask>
<path d="M240 120C240 186.274 186.274 240 120 240C53.7258 240 0 186.274 0 120C0 53.7258 53.7258 0 120 0C186.274 0 240 53.7258 240 120ZM12 120C12 179.647 60.3532 228 120 228C179.647 228 228 179.647 228 120C228 60.3532 179.647 12 120 12C60.3532 12 12 60.3532 12 120Z" stroke="#FFF4EE" stroke-width="8" stroke-dasharray="2 24" mask="url(#path-3-inside-1_32_9)"/>
</svg>
