<svg width="240" height="240" viewBox="0 0 240 240" fill="none" xmlns="http://www.w3.org/2000/svg">
<rect x="2" y="2" width="236" height="236" rx="118" stroke="#F6F3E5" stroke-width="4"/>
<circle cx="120" cy="120" r="108" stroke="#F6F3E5" stroke-width="4" stroke-dasharray="4 4"/>
<circle cx="120" cy="120" r="98" stroke="#F6F3E5" stroke-width="4" stroke-dasharray="4 41"/>
<path d="M217.601 141.666L215.677 141.198L215.204 143.141C215.024 143.88 214.835 144.619 214.637 145.358C214.439 146.097 214.233 146.831 214.019 147.561L213.458 149.481L215.358 150.037C210.84 164.416 203.328 177.1 193.701 187.582L192.27 186.213L190.888 187.659C189.836 188.759 188.76 189.833 187.661 190.88L186.213 192.26L187.578 193.693C176.801 203.558 163.963 210.97 150.031 215.371L149.472 213.472L147.554 214.036C146.097 214.464 144.629 214.859 143.15 215.22L141.207 215.694L141.677 217.618C127.786 220.715 113.045 220.878 98.3336 217.601L98.8022 215.677L96.859 215.204C96.1199 215.024 95.3809 214.835 94.6422 214.637C93.9034 214.439 93.169 214.233 92.4389 214.019L90.5194 213.458L89.9632 215.358C75.5837 210.84 62.8995 203.328 52.4184 193.701L53.7867 192.27L52.3412 190.888C51.2412 189.836 50.1672 188.76 49.1199 187.661L47.7403 186.213L46.3067 187.578C36.4419 176.801 29.0302 163.963 24.6287 150.031L26.5283 149.472L25.964 147.554C25.5357 146.097 25.1407 144.629 24.7798 143.15L24.3056 141.207L22.3821 141.677C19.2854 127.786 19.1218 113.045 22.399 98.3336L24.3231 98.8022L24.7963 96.859C24.9763 96.1199 25.1653 95.3809 25.3632 94.6422C25.5612 93.9034 25.767 93.169 25.9807 92.4389L26.5425 90.5194L24.6419 89.9632C29.1596 75.5837 36.6718 62.8995 46.2988 52.4184L47.7298 53.7867L49.112 52.3412C50.1639 51.2412 51.24 50.1672 52.3393 49.1199L53.7873 47.7403L52.4215 46.3067C63.1994 36.4419 76.0368 29.0302 89.969 24.6287L90.5276 26.5283L92.4463 25.964C93.903 25.5357 95.3712 25.1407 96.8497 24.7798L98.7927 24.3056L98.3232 22.3821C112.214 19.2854 126.955 19.1218 141.666 22.399L141.198 24.3231L143.141 24.7963C143.88 24.9763 144.619 25.1653 145.358 25.3632C146.097 25.5612 146.831 25.767 147.561 25.9807L149.481 26.5425L150.037 24.6419C164.416 29.1596 177.1 36.6718 187.582 46.2988L186.213 47.7298L187.659 49.112C188.759 50.1639 189.833 51.24 190.88 52.3393L192.26 53.7873L193.693 52.4215C203.558 63.1994 210.97 76.0368 215.371 89.969L213.472 90.5276L214.036 92.4463C214.464 93.903 214.859 95.3712 215.22 96.8497L215.694 98.7927L217.618 98.3232C220.715 112.214 220.878 126.955 217.601 141.666Z" stroke="#F6F3E5" stroke-width="4" stroke-linecap="square" stroke-dasharray="4 41"/>
</svg>
