<svg width="244" height="244" viewBox="0 0 244 244" fill="none" xmlns="http://www.w3.org/2000/svg">
<rect x="2" y="2" width="240" height="240" rx="120" fill="#1B6949"/>
<rect x="2" y="2" width="240" height="240" rx="120" stroke="#EAF9F3" stroke-width="4" stroke-linecap="round"/>
<path d="M229.514 132.23C228.171 146.349 224.059 160.065 217.415 172.595C210.771 185.125 201.723 196.224 190.79 205.258C179.856 214.291 167.25 221.083 153.692 225.245C140.133 229.406 125.888 230.857 111.769 229.513C97.6501 228.17 83.934 224.059 71.4039 217.414C58.8738 210.77 47.7752 201.723 38.7416 190.789C29.708 179.855 22.9164 167.249 18.7545 153.691C14.5927 140.133 13.1422 125.887 14.4857 111.768C15.8292 97.6492 19.9406 83.9331 26.5849 71.403C33.2293 58.873 42.2766 47.7743 53.2103 38.7407C64.1439 29.7071 76.7498 22.9155 90.3082 18.7537C103.867 14.5918 118.112 13.1413 132.231 14.4848C146.35 15.8284 160.066 19.9397 172.596 26.5841C185.126 33.2284 196.225 42.2757 205.258 53.2094C214.292 64.1431 221.084 76.749 225.246 90.3073C229.407 103.866 230.858 118.111 229.514 132.23L229.514 132.23Z" stroke="#EAF9F3" stroke-width="4" stroke-linecap="round" stroke-dasharray="0.06 20"/>
<path d="M220 122C220 109.13 217.465 96.3869 212.54 84.497C207.615 72.6071 200.397 61.8037 191.296 52.7035C182.196 43.6034 171.393 36.3848 159.503 31.4598C147.613 26.5348 134.87 24 122 24C109.13 24 96.3869 26.5348 84.497 31.4598C72.6071 36.3848 61.8037 43.6034 52.7035 52.7035C43.6034 61.8037 36.3848 72.6071 31.4598 84.497C26.5348 96.3869 24 109.13 24 122C24 134.87 26.5348 147.613 31.4598 159.503C36.3848 171.393 43.6034 182.196 52.7035 191.296C61.8037 200.397 72.6071 207.615 84.497 212.54C96.3869 217.465 109.13 220 122 220C134.87 220 147.613 217.465 159.503 212.54C171.393 207.615 182.196 200.397 191.296 191.296C200.397 182.196 207.615 171.393 212.54 159.503C217.465 147.613 220 134.87 220 122L220 122Z" stroke="#EAF9F3" stroke-width="4" stroke-linecap="round" stroke-dasharray="0.17 20"/>
</svg>
