<svg width="244" height="190" viewBox="0 0 244 190" fill="none" xmlns="http://www.w3.org/2000/svg">
<path d="M20.1084 185.388C8.7621 167.15 2.5191 146.201 2.03099 124.727C1.54287 103.253 6.82753 82.0416 17.3334 63.3067C27.8393 44.5718 43.1812 29.0002 61.7579 18.2171C80.3346 7.434 101.465 1.83474 122.944 2.00371C144.423 2.17269 165.463 8.1037 183.867 19.1777C202.272 30.2517 217.367 46.0628 227.577 64.9607C237.787 83.8586 242.737 105.15 241.911 126.614C241.085 148.078 234.514 168.926 222.882 186.984" stroke="#EEE6FB" stroke-width="4" stroke-linecap="round" stroke-dasharray="32 80"/>
<path d="M28.6844 180.243C18.2538 163.531 12.5025 144.324 12.0315 124.63C11.5604 104.936 16.3868 85.4768 26.0065 68.2854C35.6262 51.0941 49.6861 36.8015 66.7173 26.901C83.7485 17.0004 103.126 11.8553 122.825 12.0031C142.524 12.1509 161.823 17.5862 178.703 27.7411C195.584 37.896 209.428 52.398 218.789 69.7317C228.149 87.0655 232.683 106.595 231.917 126.28C231.15 145.965 225.111 165.083 214.431 181.636" stroke="#EEE6FB" stroke-width="4" stroke-linecap="round" stroke-dasharray="4 38"/>
</svg>
