  <svg width="269" height="192" viewBox="0 0 269 192" fill="none" xmlns="http://www.w3.org/2000/svg">
                        <path
                            d="M134.5 190C207.678 190 267 147.915 267 96.0001C267 44.0853 207.678 2 134.5 2C61.3223 2 2 44.0853 2 96.0001C2 147.915 61.3223 190 134.5 190Z"
                            fill="#FD97B7" stroke="#4B0119" stroke-width="4.01324" stroke-linecap="round"
                            stroke-linejoin="round" />
                        <path
                            d="M257.516 108.07L256.664 108.131L256.117 108.787C252.892 112.66 248.829 115.818 244.2 118.031C239.024 120.506 233.3 121.724 227.525 121.577L227.499 121.576H227.474H226.378H225.592L225.015 122.11C221.767 125.116 217.969 127.524 213.808 129.208C209.141 131.096 204.12 132.031 199.06 131.953L199.041 131.953L199.022 131.953C196.17 131.963 193.327 131.672 190.545 131.085L189.701 130.907L188.991 131.396C182.453 135.908 174.566 138.276 166.495 138.114L166.477 138.114L166.46 138.114C163.865 138.107 161.278 137.863 158.734 137.386L157.894 137.228L157.198 137.725C150.585 142.448 142.563 145.015 134.3 145.015C126.037 145.015 118.015 142.448 111.401 137.724L110.706 137.228L109.866 137.385C107.316 137.862 104.724 138.106 102.124 138.114L102.115 138.114L102.105 138.114C94.1588 138.211 86.4101 135.853 79.9717 131.416L79.2487 130.918L78.3922 131.111C75.654 131.728 72.8533 132.06 70.0379 132.1L70.0341 132.1C64.9574 132.182 59.9193 131.247 55.2365 129.354C51.0704 127.67 47.2672 125.262 44.0121 122.256L43.4355 121.723H42.6506H41.5152H41.4927L41.4701 121.724C35.6979 121.854 29.9811 120.628 24.8083 118.154C20.1827 115.942 16.1175 112.793 12.883 108.932L12.3365 108.279L11.4875 108.219C9.77756 108.097 8.07871 107.869 6.40123 107.539L3.78687 107.024L4.01386 109.679C5.92645 132.049 19.6984 151.269 41.4488 165.27C64.9576 180.402 97.7165 189.362 134.468 189.362C171.217 189.362 203.999 180.366 227.531 165.197C249.306 151.16 263.099 131.904 265.013 109.526L265.24 106.872L262.626 107.387C260.94 107.718 259.234 107.947 257.516 108.07Z"
                            fill="#FC598C" stroke="#4B0119" stroke-width="4.01324" />
                    </svg>
