<svg xmlns="http://www.w3.org/2000/svg" width="263" height="300" viewBox="0 0 263 300" fill="none">
  <path d="M241.75 262.5V264.5H243.75C253.017 264.5 260.5 271.983 260.5 281.25C260.5 290.517 253.017 298 243.75 298H225H56.25C26.2999 298 2 273.7 2 243.75V56.25C2 26.2999 26.2999 2 56.25 2H225H243.75C253.017 2 260.5 9.48348 260.5 18.75V206.25C260.5 215.517 253.017 223 243.75 223H241.75V225V262.5ZM208.25 225V223H206.25H56.25C44.7743 223 35.5 232.274 35.5 243.75C35.5 255.226 44.7743 264.5 56.25 264.5H206.25H208.25V262.5V225Z" fill="#EDE1D5" stroke="#242424" stroke-width="4"/>
</svg>