<svg viewBox="0 0 14 18" class="fi-sidebar-item-icon h-6 w-6 text-primary-600 dark:text-primary-400" fill="none" xmlns="http://www.w3.org/2000/svg">
    <path d="M10.294 4.5079L10.1628 4.55618C9.62239 4.75808 9.10297 4.85903 8.56781 4.85903C7.87525 4.85903 7.27188 4.69663 6.63178 4.52546C5.99694 4.35428 5.3411 4.17871 4.60132 4.17871C4.25504 4.17871 3.91925 4.21821 3.57297 4.29283L3.51001 4.306L3.52575 4.35867C3.8458 5.32429 4.54361 6.59276 6.02842 7.14579C6.33272 7.25991 6.6003 7.30819 6.88362 7.30819C7.1617 7.30819 7.45551 7.25552 7.78081 7.14579C8.66749 6.84733 9.8375 5.81587 10.252 4.61763L10.294 4.5079Z" fill="currentColor"/>
    <path d="M12.9855 1.9049H13.421C13.6204 1.9049 13.7778 1.77323 13.7778 1.61083V0.294075C13.7778 0.131675 13.6151 0 13.421 0H0.356773C0.1574 0 0 0.131675 0 0.294075V1.61083C0 1.77323 0.162646 1.9049 0.356773 1.9049H0.792248C0.849961 4.74031 2.69679 7.40015 5.64543 8.86613L5.91825 8.99781L5.64543 9.13387C2.69679 10.5999 0.849961 13.2553 0.792248 16.0951H0.356773C0.1574 16.0951 0 16.2268 0 16.3892V17.7059C0 17.8683 0.162646 18 0.356773 18H13.421C13.6204 18 13.7778 17.8683 13.7778 17.7059V16.3892C13.7778 16.2268 13.6151 16.0951 13.421 16.0951H12.9855C12.9278 13.2597 11.081 10.5999 8.13235 9.13387L7.85952 8.99781L8.13235 8.86174C11.081 7.40015 12.9226 4.74031 12.9855 1.9049ZM11.9887 16.0907H1.78912C1.84683 13.545 3.50478 11.1617 6.15435 9.84492L6.88889 9.48061L7.62342 9.84492C10.273 11.1617 11.9309 13.545 11.9887 16.0907ZM7.62342 8.1507L6.88889 8.515L6.15435 8.1507C3.50478 6.83394 1.84683 4.45062 1.78912 1.9049H11.9939C11.9309 4.45062 10.273 6.83394 7.62342 8.1507Z" fill="currentColor"/>
    <path d="M5.97072 13.1281C4.39672 13.5319 3.66219 14.4668 3.32115 15.1779L3.28442 15.2525H10.4934L10.4566 15.1779C10.1156 14.4668 9.38106 13.5319 7.80706 13.1281C7.20842 12.9762 6.56936 12.9762 5.97072 13.1281Z" fill="currentColor"/>
</svg>
