<svg width="300" height="300" viewBox="0 0 300 300" fill="none" xmlns="http://www.w3.org/2000/svg">
<path d="M97.6836 26C86.4922 26 77 35.4336 77 46.6836C77 58.2852 85.9648 67.4258 97.332 67.4258H142.332C137.117 53.7734 123.406 26 97.6836 26Z" fill="#BCE2FF"/>
<path d="M202.648 26C213.84 26 223.332 35.4336 223.332 46.6836C223.332 58.2852 214.367 67.4258 203 67.4258H158C163.215 53.7734 176.926 26 202.648 26Z" fill="#F8F8F6"/>
<path d="M250.715 269.165C254.009 265.871 255.865 261.408 255.879 256.75V148H45V256.75C45.0136 261.408 46.8699 265.871 50.1635 269.165C53.4571 272.458 57.9203 274.315 62.5781 274.328H238.301C242.959 274.315 247.422 272.458 250.715 269.165Z" fill="#F8F8F6"/>
<path d="M255.41 67.793H228.047C231.93 63.0335 234.387 57.2716 235.131 51.174C235.876 45.0765 234.879 38.8928 232.255 33.3386C229.631 27.7843 225.488 23.0867 220.305 19.7894C215.122 16.4921 209.112 14.73 202.969 14.707C184.922 14.707 169.043 24.8438 157.031 44.0039C154.458 48.121 152.168 52.4083 150.176 56.8359C148.184 52.4083 145.893 48.121 143.32 44.0039C131.309 24.8438 115.371 14.707 97.3828 14.707C91.24 14.73 85.2294 16.4921 80.0465 19.7894C74.8636 23.0867 70.7205 27.7843 68.0966 33.3386C65.4728 38.8928 64.4755 45.0765 65.2202 51.174C65.9649 57.2716 68.4212 63.0335 72.3047 67.793H44.5898C36.8207 67.7958 29.3705 70.8833 23.8769 76.3769C18.3833 81.8705 15.2958 89.3207 15.293 97.0898V141.504C15.2975 143.057 15.9162 144.544 17.0141 145.642C18.112 146.74 19.5997 147.359 21.1523 147.363H32.9883V256.055C32.9911 263.824 36.0786 271.274 41.5722 276.768C47.0658 282.261 54.516 285.349 62.2852 285.352H238.008C245.777 285.349 253.227 282.261 258.721 276.768C264.214 271.274 267.302 263.824 267.305 256.055V147.305H278.848C280.4 147.3 281.888 146.681 282.986 145.584C284.084 144.486 284.703 142.998 284.707 141.445V97.0312C284.692 89.2714 281.598 81.8347 276.105 76.3531C270.613 70.8715 263.17 67.793 255.41 67.793ZM202.969 26.3672C214.219 26.3672 223.652 35.8594 223.652 47.0508C223.652 58.6523 214.688 67.7344 203.262 67.7344H158.262C163.477 54.1406 177.188 26.3672 202.969 26.3672ZM76.6406 47.0508C76.6406 35.8008 86.1328 26.3672 97.3242 26.3672C123.047 26.3672 136.758 54.1406 141.973 67.793H96.9727C85.6055 67.793 76.6406 58.6523 76.6406 47.0508ZM255.586 256.055C255.572 260.713 253.716 265.176 250.422 268.469C247.129 271.763 242.666 273.619 238.008 273.633H62.2852C57.6273 273.619 53.1642 271.763 49.8706 268.469C46.577 265.176 44.7206 260.713 44.707 256.055V147.305H255.586V256.055ZM272.988 135.586H27.0117V97.0312C27.0253 92.3734 28.8817 87.9103 32.1753 84.6167C35.4689 81.3231 39.932 79.4667 44.5898 79.4531H255.469C260.127 79.4667 264.59 81.3231 267.883 84.6167C271.177 87.9103 273.033 92.3734 273.047 97.0312V135.586H272.988Z" fill="#001829"/>
<path fill-rule="evenodd" clip-rule="evenodd" d="M27 136.133H273.035V97.5781C273.022 92.9203 271.165 88.4571 267.872 85.1635C264.578 81.8699 260.115 80.0136 255.457 80H44.5781C39.9203 80.0136 32.1635 85.1635 32.1635 85.1635C32.1635 85.1635 27.0136 92.9203 27 97.5781V136.133Z" fill="#BCE2FF"/>
</svg>
