<svg xmlns="http://www.w3.org/2000/svg" width="300" height="184" viewBox="0 0 300 184" fill="none">
  <path d="M271.352 60.9868L195.446 27.0677L174.992 18.0226L174.538 17.5703C174.083 17.5703 173.629 17.118 173.174 17.118L152.721 8.07296C147.266 5.81168 140.903 6.26393 135.903 9.42972C130.903 12.5955 127.722 18.0226 127.722 24.3541C127.722 29.3289 123.176 33.3992 117.722 33.3992H56.3612C50.9069 33.3992 46.3616 28.8767 46.3616 23.4496C46.3616 12.1433 38.6347 2.19364 27.7261 0.384624C19.9991 -0.97214 12.7267 1.28914 6.81788 6.7162C2.27263 11.2387 0 16.6658 0 22.9974V163.649C0 174.955 9.09051 184 20.4536 184H279.533C290.896 184 299.987 174.955 299.987 163.649V105.308C300.441 86.313 289.078 68.6751 271.352 60.9868ZM9.54504 22.5451C9.54504 18.9271 10.9086 15.309 13.6358 12.5955C16.8174 9.42972 21.3627 8.07296 26.3625 8.97747C32.7258 10.3342 37.7256 16.2135 37.7256 23.4496C37.7256 33.8515 46.3616 42.4443 56.8157 42.4443H117.268C127.722 42.4443 136.358 34.3037 136.358 24.3541C136.358 21.1883 137.721 18.4748 140.448 17.118C143.176 15.309 145.903 15.309 148.63 16.6658L165.447 23.9019L156.357 40.6353C154.993 42.8966 155.902 45.6101 158.175 46.9668C159.084 47.4191 159.538 47.4191 160.448 47.4191C162.266 47.4191 163.629 46.5146 164.538 45.1578L174.083 27.9722L186.81 33.8515L177.719 50.5849C176.356 52.8462 177.265 55.5597 179.538 56.9165C180.447 57.3687 180.901 57.3687 181.81 57.3687C183.628 57.3687 184.992 56.4642 185.901 55.1074L195.446 37.9218L209.082 43.8011L199.537 61.439C198.173 63.7003 199.082 66.4138 201.355 67.7706C202.264 68.2228 202.718 68.2228 203.627 68.2228C205.446 68.2228 206.809 67.3183 207.718 65.9615L217.718 47.8714L236.353 56.0119C220.445 86.7653 217.718 116.162 235.444 142.845H72.2696C72.2696 140.584 72.7241 138.775 72.7241 136.513C72.7241 100.785 44.998 71.8409 9.54504 69.5796V22.5451ZM291.351 163.649H9.54504V150.533H291.351V163.649Z" fill="black"/>
</svg>