<svg width="240" height="240" viewBox="0 0 240 240" fill="none" xmlns="http://www.w3.org/2000/svg">
<rect width="240" height="240" rx="120" fill="#893B52"/>
<path d="M228 120C228 134.183 225.206 148.227 219.779 161.33C214.351 174.433 206.396 186.339 196.368 196.368C186.339 206.396 174.433 214.351 161.33 219.779C148.227 225.206 134.183 228 120 228C105.817 228 91.7733 225.206 78.6702 219.779C65.567 214.351 53.6612 206.396 43.6325 196.368C33.6037 186.339 25.6485 174.433 20.221 161.33C14.7935 148.227 12 134.183 12 120C12 105.817 14.7935 91.7733 20.221 78.6702C25.6485 65.567 33.6037 53.6612 43.6325 43.6325C53.6612 33.6037 65.567 25.6485 78.6702 20.221C91.7734 14.7935 105.817 12 120 12C134.183 12 148.227 14.7935 161.33 20.221C174.433 25.6485 186.339 33.6038 196.368 43.6325C206.396 53.6612 214.351 65.567 219.779 78.6702C225.207 91.7734 228 105.817 228 120L228 120Z" stroke="#F1DFE5" stroke-width="4" stroke-linecap="round" stroke-dasharray="0.06 20"/>
<path d="M216 120C216 132.607 213.517 145.09 208.692 156.738C203.868 168.385 196.797 178.968 187.882 187.882C178.968 196.797 168.385 203.868 156.738 208.692C145.09 213.517 132.607 216 120 216C107.393 216 94.9096 213.517 83.2624 208.692C71.6151 203.868 61.0322 196.797 52.1177 187.882C43.2033 178.968 36.132 168.385 31.3076 156.738C26.4831 145.09 24 132.607 24 120C24 107.393 26.4831 94.9096 31.3076 83.2624C36.132 71.6151 43.2033 61.0322 52.1178 52.1177C61.0322 43.2033 71.6151 36.132 83.2624 31.3076C94.9097 26.4831 107.393 24 120 24C132.607 24 145.09 26.4831 156.738 31.3076C168.385 36.132 178.968 43.2033 187.882 52.1178C196.797 61.0322 203.868 71.6151 208.692 83.2624C213.517 94.9097 216 107.393 216 120L216 120Z" stroke="#F1DFE5" stroke-width="4" stroke-linecap="round" stroke-dasharray="16 20"/>
</svg>
