<svg width="240" height="240" viewBox="0 0 240 240" fill="none" xmlns="http://www.w3.org/2000/svg">
<rect x="6" y="6" width="228" height="228" rx="114" fill="#9A400C"/>
<rect x="6" y="6" width="228" height="228" rx="114" stroke="#FFECCC" stroke-width="12" stroke-linecap="square" stroke-dasharray="20 36"/>
<path d="M205.946 96.9709C218.664 144.437 190.496 193.227 143.029 205.946C95.5625 218.664 46.7728 190.496 34.0542 143.029C21.3355 95.5625 49.5043 46.7728 96.9709 34.0542C144.437 21.3355 193.227 49.5043 205.946 96.9709Z" stroke="#FFECCC" stroke-width="2"/>
<path d="M198.148 48.3905C208.334 59.4873 216.283 72.9118 221.069 88.1282L215.346 89.9284C215.781 91.3114 216.188 92.7103 216.567 94.1249C216.946 95.5395 217.293 96.9547 217.608 98.3699L223.464 97.0671C226.928 112.638 226.755 128.239 223.483 142.942L217.626 141.638C216.993 144.483 216.237 147.293 215.361 150.061L221.082 151.87C216.419 166.611 208.576 180.195 198.141 191.604L193.714 187.555C191.755 189.697 189.7 191.757 187.552 193.728L191.61 198.148C180.513 208.334 167.088 216.283 151.872 221.069L150.072 215.346C148.689 215.781 147.29 216.188 145.875 216.567C144.461 216.946 143.045 217.293 141.63 217.608L142.933 223.464C127.362 226.928 111.761 226.755 97.0584 223.483L98.3619 217.626C95.5166 216.993 92.7066 216.237 89.9395 215.361L88.1299 221.082C73.3886 216.419 59.8047 208.576 48.3957 198.141L52.4451 193.714C50.3034 191.755 48.2433 189.7 46.2722 187.552L41.8519 191.61C31.6665 180.513 23.7167 167.088 18.9307 151.872L24.6542 150.072C24.2193 148.689 23.8119 147.29 23.4328 145.875C23.0538 144.461 22.7071 143.045 22.3924 141.63L16.5355 142.933C13.0721 127.362 13.2446 111.761 16.517 97.0584L22.3737 98.3619C23.007 95.5166 23.7635 92.7066 24.6388 89.9395L18.9182 88.1299C23.5813 73.3886 31.424 59.8047 41.8587 48.3957L46.2862 52.4451C48.2449 50.3034 50.3003 48.2433 52.4477 46.2722L48.3905 41.8519C59.4873 31.6665 72.9118 23.7167 88.1282 18.9307L89.9284 24.6542C91.3114 24.2193 92.7103 23.8119 94.1249 23.4328C95.5395 23.0538 96.9547 22.7071 98.3699 22.3924L97.0671 16.5355C112.638 13.0721 128.239 13.2446 142.942 16.517L141.638 22.3737C144.483 23.007 147.293 23.7635 150.061 24.6388L151.87 18.9182C166.611 23.5813 180.195 31.424 191.604 41.8587L187.555 46.2862C189.697 48.2449 191.757 50.3003 193.728 52.4477L198.148 48.3905Z" stroke="#FFECCC" stroke-width="12" stroke-dasharray="8 40"/>
</svg>
