<svg width="248" height="248" viewBox="0 0 248 248" fill="none" xmlns="http://www.w3.org/2000/svg">
<rect x="2" y="2" width="244" height="244" rx="122" stroke="#FBF2E0" stroke-width="4"/>
<rect x="26" y="27" width="196" height="194" rx="97" stroke="#FBF2E0" stroke-width="4"/>
<path d="M239 124C239 187.513 187.513 239 124 239C60.4873 239 9 187.513 9 124C9 60.4873 60.4873 9 124 9C187.513 9 239 60.4873 239 124ZM19.35 124C19.35 181.797 66.2034 228.65 124 228.65C181.797 228.65 228.65 181.797 228.65 124C228.65 66.2034 181.797 19.35 124 19.35C66.2034 19.35 19.35 66.2034 19.35 124Z" fill="#FBF2E0"/>
</svg>
