<svg width="240" height="240" viewBox="0 0 240 240" fill="none" xmlns="http://www.w3.org/2000/svg">
<rect x="1" y="1" width="238" height="238" rx="119" stroke="#F9F0ED" stroke-width="2"/>
<mask id="path-2-inside-1_35_2195" fill="white">
<path d="M235 120C235 183.513 183.513 235 120 235C56.4873 235 5 183.513 5 120C5 56.4873 56.4873 5 120 5C183.513 5 235 56.4873 235 120ZM16.9732 120C16.9732 176.9 63.0998 223.027 120 223.027C176.9 223.027 223.027 176.9 223.027 120C223.027 63.0998 176.9 16.9732 120 16.9732C63.0998 16.9732 16.9732 63.0998 16.9732 120Z"/>
</mask>
<path d="M235 120C235 183.513 183.513 235 120 235C56.4873 235 5 183.513 5 120C5 56.4873 56.4873 5 120 5C183.513 5 235 56.4873 235 120ZM16.9732 120C16.9732 176.9 63.0998 223.027 120 223.027C176.9 223.027 223.027 176.9 223.027 120C223.027 63.0998 176.9 16.9732 120 16.9732C63.0998 16.9732 16.9732 63.0998 16.9732 120Z" stroke="#F9F0ED" stroke-width="4" stroke-linecap="square" stroke-dasharray="2 26" mask="url(#path-2-inside-1_35_2195)"/>
<circle cx="120" cy="120" r="99" stroke="#F9F0ED" stroke-width="2"/>
<circle cx="120" cy="120.001" r="109" transform="rotate(7.5 120 120.001)" stroke="#F9F0ED" stroke-width="8" stroke-linecap="square" stroke-dasharray="2 30"/>
</svg>
