<svg width="300" height="300" viewBox="0 0 300 300" fill="none" xmlns="http://www.w3.org/2000/svg">
<path d="M257.812 51.5625H229.688V65.625C229.688 69.3546 228.206 72.9315 225.569 75.5687C222.931 78.2059 219.355 79.6875 215.625 79.6875C211.895 79.6875 208.319 78.2059 205.681 75.5687C203.044 72.9315 201.562 69.3546 201.562 65.625V51.5625H98.4375V65.625C98.4375 69.3546 96.9559 72.9315 94.3187 75.5687C91.6815 78.2059 88.1046 79.6875 84.375 79.6875C80.6454 79.6875 77.0685 78.2059 74.4313 75.5687C71.7941 72.9315 70.3125 69.3546 70.3125 65.625V51.5625H42.1875C37.2147 51.5625 32.4456 53.5379 28.9292 57.0542C25.4129 60.5706 23.4375 65.3397 23.4375 70.3125V257.812C23.4375 262.785 25.4129 267.554 28.9292 271.071C32.4456 274.587 37.2147 276.562 42.1875 276.562H257.812C262.785 276.562 267.554 274.587 271.071 271.071C274.587 267.554 276.562 262.785 276.562 257.812V70.3125C276.562 65.3397 274.587 60.5706 271.071 57.0542C267.554 53.5379 262.785 51.5625 257.812 51.5625Z" fill="white"/>
<path d="M257.812 51.5625H229.688V65.625C229.688 69.3546 228.206 72.9315 225.569 75.5687C222.931 78.2059 219.355 79.6875 215.625 79.6875C211.895 79.6875 208.319 78.2059 205.681 75.5687C203.044 72.9315 201.562 69.3546 201.562 65.625V51.5625H98.4375V65.625C98.4375 69.3546 96.9559 72.9315 94.3187 75.5687C91.6815 78.2059 88.1046 79.6875 84.375 79.6875C80.6454 79.6875 77.0685 78.2059 74.4313 75.5687C71.7941 72.9315 70.3125 69.3546 70.3125 65.625V51.5625H42.1875C37.2147 51.5625 32.4456 53.5379 28.9292 57.0542C25.4129 60.5706 23.4375 65.3397 23.4375 70.3125V98.4375H276.562V70.3125C276.562 65.3397 274.587 60.5706 271.071 57.0542C267.554 53.5379 262.785 51.5625 257.812 51.5625Z" fill="#CADCFF"/>
<path d="M84.375 79.6875C80.6454 79.6875 77.0685 78.2059 74.4313 75.5687C71.7941 72.9315 70.3125 69.3546 70.3125 65.625V37.5C70.3125 33.7704 71.7941 30.1935 74.4313 27.5563C77.0685 24.9191 80.6454 23.4375 84.375 23.4375C88.1046 23.4375 91.6815 24.9191 94.3187 27.5563C96.9559 30.1935 98.4375 33.7704 98.4375 37.5V65.625C98.4375 69.3546 96.9559 72.9315 94.3187 75.5687C91.6815 78.2059 88.1046 79.6875 84.375 79.6875ZM215.625 79.6875C211.895 79.6875 208.319 78.2059 205.681 75.5687C203.044 72.9315 201.562 69.3546 201.562 65.625V37.5C201.562 33.7704 203.044 30.1935 205.681 27.5563C208.319 24.9191 211.895 23.4375 215.625 23.4375C219.355 23.4375 222.931 24.9191 225.569 27.5563C228.206 30.1935 229.688 33.7704 229.688 37.5V65.625C229.688 69.3546 228.206 72.9315 225.569 75.5687C222.931 78.2059 219.355 79.6875 215.625 79.6875Z" fill="white"/>
<path d="M257.812 51.5625H229.688C234.66 51.5625 239.429 53.5379 242.946 57.0542C246.462 60.5706 248.438 65.3397 248.438 70.3125V257.812C248.438 262.785 246.462 267.554 242.946 271.071C239.429 274.587 234.66 276.562 229.688 276.562H257.812C262.785 276.562 267.554 274.587 271.071 271.071C274.587 267.554 276.562 262.785 276.562 257.812V70.3125C276.562 65.3397 274.587 60.5706 271.071 57.0542C267.554 53.5379 262.785 51.5625 257.812 51.5625ZM196.875 229.688H215.625V257.812H196.875V229.688Z" fill="#CADCFF"/>
<path d="M215.625 263.5H196.875C195.632 263.5 194.44 263.006 193.56 262.127C192.681 261.248 192.188 260.056 192.188 258.812V230.688C192.188 229.444 192.681 228.252 193.56 227.373C194.44 226.494 195.632 226 196.875 226H215.625C216.868 226 218.06 226.494 218.94 227.373C219.819 228.252 220.312 229.444 220.312 230.688V258.812C220.312 260.056 219.819 261.248 218.94 262.127C218.06 263.006 216.868 263.5 215.625 263.5ZM201.562 254.125H210.938V235.375H201.562V254.125Z" fill="#073182"/>
<path d="M247.556 220.162L231.45 192.187H181.05L164.934 220.162C162.534 224.324 165.337 229.687 169.912 229.687H242.569C247.153 229.687 249.956 224.324 247.556 220.162ZM238.322 182.512L221.681 155.418H190.819L174.178 182.512C171.619 186.665 174.412 192.187 179.062 192.187H233.437C238.087 192.187 240.881 186.665 238.322 182.512ZM229.547 145.734L215.025 122.287C214.13 120.752 212.849 119.478 211.308 118.593C209.767 117.708 208.022 117.242 206.245 117.242C204.468 117.242 202.723 117.708 201.182 118.593C199.642 119.478 198.36 120.752 197.465 122.287L182.962 145.715C180.394 149.868 183.178 155.409 187.837 155.409H224.681C229.331 155.418 232.115 149.887 229.547 145.734Z" fill="white"/>
<path d="M247.556 220.162L231.45 192.187H233.437C238.087 192.187 240.881 186.665 238.331 182.512L221.691 155.418H224.691C229.341 155.418 232.125 149.887 229.556 145.743L215.034 122.296C214.14 120.762 212.858 119.488 211.318 118.603C209.777 117.718 208.031 117.252 206.255 117.252C204.478 117.252 202.732 117.718 201.192 118.603C199.651 119.488 198.37 120.762 197.475 122.296L196.875 123.243L210.797 145.734C213.366 149.878 210.581 155.409 205.931 155.409H202.931L219.572 182.503C222.122 186.656 219.338 192.178 214.678 192.178H212.691L228.806 220.153C231.206 224.315 228.403 229.678 223.828 229.678H242.578C247.153 229.687 249.956 224.325 247.556 220.162Z" fill="#CADCFF"/>
<path d="M242.578 234.375H169.922C168.081 234.369 166.274 233.875 164.686 232.943C163.099 232.011 161.787 230.674 160.884 229.069C159.899 227.36 159.38 225.422 159.38 223.449C159.38 221.476 159.899 219.538 160.884 217.829L176.991 189.854C177.405 189.141 177.999 188.55 178.713 188.139C179.426 187.728 180.236 187.511 181.059 187.51H231.45C233.128 187.51 234.675 188.41 235.519 189.854L251.634 217.829C253.631 221.297 253.631 225.6 251.625 229.069C250.72 230.674 249.407 232.011 247.817 232.943C246.228 233.875 244.42 234.369 242.578 234.375ZM183.769 196.875L169.013 222.507C168.845 222.789 168.757 223.111 168.757 223.439C168.757 223.768 168.845 224.09 169.013 224.372C169.247 224.794 169.556 225 169.922 225H242.578C242.944 225 243.253 224.794 243.497 224.382C243.664 224.099 243.753 223.778 243.754 223.45C243.756 223.122 243.67 222.8 243.506 222.516H243.497L228.731 196.875H183.769Z" fill="#073182"/>
<path d="M233.428 196.874H179.063C175.266 196.874 171.853 194.84 169.95 191.437C168.974 189.69 168.48 187.716 168.52 185.716C168.559 183.715 169.131 181.762 170.175 180.055L186.816 152.962C187.235 152.28 187.823 151.716 188.522 151.326C189.221 150.935 190.009 150.73 190.809 150.73H221.663C222.463 150.73 223.251 150.935 223.95 151.326C224.649 151.716 225.237 152.28 225.656 152.962L242.297 180.055C243.343 181.761 243.916 183.715 243.955 185.716C243.995 187.716 243.5 189.691 242.522 191.437C241.64 193.081 240.328 194.455 238.727 195.413C237.125 196.37 235.294 196.875 233.428 196.874ZM193.444 160.105L178.172 184.959C177.996 185.242 177.9 185.568 177.895 185.902C177.89 186.235 177.976 186.564 178.144 186.852C178.369 187.293 178.688 187.499 179.072 187.499H233.438C233.822 187.499 234.131 187.293 234.366 186.862C234.533 186.573 234.619 186.245 234.614 185.911C234.609 185.577 234.514 185.251 234.338 184.968L219.066 160.115H193.444V160.105Z" fill="#073182"/>
<path d="M224.681 160.107H187.837C184.031 160.107 180.619 158.063 178.716 154.65C177.741 152.899 177.251 150.92 177.295 148.916C177.34 146.912 177.917 144.957 178.969 143.25L193.481 119.813C196.303 115.275 201.075 112.557 206.241 112.557C211.406 112.557 216.187 115.275 219 119.813L233.522 143.279C234.571 144.982 235.156 146.935 235.199 148.936C235.242 150.937 234.75 152.912 233.775 154.66C232.893 156.305 231.582 157.681 229.981 158.64C228.379 159.599 226.548 160.106 224.681 160.107ZM206.25 121.932C205.273 121.946 204.316 122.215 203.475 122.711C202.633 123.208 201.935 123.915 201.45 124.763L186.937 148.2C186.762 148.484 186.667 148.81 186.662 149.143C186.657 149.477 186.743 149.805 186.909 150.094C187.144 150.516 187.462 150.732 187.837 150.732H224.681C225.056 150.732 225.366 150.525 225.6 150.104C225.765 149.814 225.849 149.485 225.842 149.151C225.836 148.818 225.739 148.493 225.562 148.21L211.05 124.754C210.562 123.908 209.863 123.204 209.022 122.709C208.181 122.215 207.226 121.947 206.25 121.932Z" fill="#073182"/>
<path d="M185.775 159.375C184.754 159.369 183.745 159.152 182.812 158.737C181.537 158.005 180.423 157.023 179.535 155.851C178.648 154.678 178.005 153.339 177.647 151.913C177.27 150.461 177.191 148.948 177.417 147.465C177.643 145.982 178.167 144.561 178.959 143.288L193.528 119.756C194.849 117.558 196.713 115.736 198.941 114.465C201.168 113.194 203.685 112.518 206.25 112.5H206.287C208.852 112.513 211.371 113.184 213.602 114.45C215.833 115.715 217.701 117.533 219.028 119.728L221.597 123.862C221.756 124.219 222.262 125.409 222.328 125.794C223.491 133.163 221.297 140.531 216.159 146.55C209.297 154.575 197.934 159.375 185.775 159.375ZM206.287 121.875H206.269C205.297 121.89 204.346 122.159 203.509 122.654C202.672 123.148 201.979 123.853 201.497 124.697L186.928 148.219C186.767 148.479 186.677 148.777 186.668 149.083C186.658 149.389 186.728 149.692 186.872 149.963C196.144 149.625 204.206 146.128 209.034 140.456C211.284 137.822 213.778 133.566 213.169 128.034L211.069 124.688C210.584 123.844 209.889 123.142 209.05 122.648C208.212 122.155 207.26 121.889 206.287 121.875Z" fill="#073182"/>
<path d="M179.925 196.874L178.613 196.837C176.782 196.75 175.006 196.183 173.464 195.193C171.922 194.202 170.668 192.822 169.828 191.193C168.914 189.466 168.465 187.531 168.526 185.578C168.587 183.625 169.155 181.722 170.175 180.055L186.816 152.962C187.235 152.28 187.823 151.716 188.522 151.326C189.221 150.935 190.009 150.73 190.81 150.73H221.653C222.521 150.731 223.371 150.973 224.109 151.428C224.847 151.883 225.444 152.534 225.835 153.309C227.588 156.777 228.469 160.396 228.469 164.052C228.488 182.465 207.16 196.874 179.925 196.874ZM193.444 160.105L178.172 184.959C178.004 185.232 177.91 185.544 177.9 185.865C177.89 186.186 177.965 186.504 178.116 186.787C178.275 187.087 178.556 187.434 179.025 187.452H179.128C201.225 187.462 219.122 176.737 219.122 164.052C219.122 162.73 218.925 161.418 218.531 160.096L193.444 160.105Z" fill="#073182"/>
<path d="M169.697 234.328C167.851 234.271 166.053 233.729 164.483 232.756C162.913 231.784 161.626 230.415 160.753 228.787C159.828 227.103 159.355 225.208 159.378 223.286C159.4 221.364 159.92 219.481 160.884 217.819L177 189.844C177.414 189.132 178.008 188.541 178.722 188.129C179.436 187.718 180.245 187.501 181.069 187.5H231.459C233.137 187.5 234.684 188.4 235.528 189.853L236.503 191.559C236.972 192.375 237.178 193.322 237.103 194.25C235.369 216.637 206.4 233.869 169.697 234.328ZM183.769 196.875L169.012 222.506C168.853 222.777 168.766 223.084 168.761 223.398C168.756 223.712 168.833 224.022 168.984 224.297C169.144 224.578 169.425 224.925 169.884 224.953C198.328 224.588 222.956 212.278 227.175 196.866L183.769 196.875ZM84.375 84.375C74.0344 84.375 65.625 75.9656 65.625 65.625V37.5C65.625 27.1594 74.0344 18.75 84.375 18.75C94.7156 18.75 103.125 27.1594 103.125 37.5V65.625C103.125 75.9656 94.7156 84.375 84.375 84.375ZM84.375 28.125C81.8886 28.125 79.504 29.1127 77.7459 30.8709C75.9877 32.629 75 35.0136 75 37.5V65.625C75 68.1114 75.9877 70.496 77.7459 72.2541C79.504 74.0123 81.8886 75 84.375 75C86.8614 75 89.246 74.0123 91.0041 72.2541C92.7623 70.496 93.75 68.1114 93.75 65.625V37.5C93.75 35.0136 92.7623 32.629 91.0041 30.8709C89.246 29.1127 86.8614 28.125 84.375 28.125ZM215.625 84.375C205.284 84.375 196.875 75.9656 196.875 65.625V37.5C196.875 27.1594 205.284 18.75 215.625 18.75C225.966 18.75 234.375 27.1594 234.375 37.5V65.625C234.375 75.9656 225.966 84.375 215.625 84.375ZM215.625 28.125C213.139 28.125 210.754 29.1127 208.996 30.8709C207.238 32.629 206.25 35.0136 206.25 37.5V65.625C206.25 68.1114 207.238 70.496 208.996 72.2541C210.754 74.0123 213.139 75 215.625 75C218.111 75 220.496 74.0123 222.254 72.2541C224.012 70.496 225 68.1114 225 65.625V37.5C225 35.0136 224.012 32.629 222.254 30.8709C220.496 29.1127 218.111 28.125 215.625 28.125Z" fill="#073182"/>
<path d="M257.812 281.25H42.1875C35.973 281.245 30.0145 278.774 25.6202 274.38C21.2259 269.986 18.755 264.027 18.75 257.812V70.3125C18.75 57.3844 29.2594 46.875 42.1875 46.875H70.3125C71.5557 46.875 72.748 47.3689 73.6271 48.2479C74.5061 49.127 75 50.3193 75 51.5625V65.625C75 68.1114 75.9877 70.496 77.7459 72.2541C79.504 74.0123 81.8886 75 84.375 75C86.8614 75 89.246 74.0123 91.0041 72.2541C92.7623 70.496 93.75 68.1114 93.75 65.625V51.5625C93.75 50.3193 94.2439 49.127 95.1229 48.2479C96.002 47.3689 97.1943 46.875 98.4375 46.875H201.562C202.806 46.875 203.998 47.3689 204.877 48.2479C205.756 49.127 206.25 50.3193 206.25 51.5625V65.625C206.25 68.1114 207.238 70.496 208.996 72.2541C210.754 74.0123 213.139 75 215.625 75C218.111 75 220.496 74.0123 222.254 72.2541C224.012 70.496 225 68.1114 225 65.625V51.5625C225 50.3193 225.494 49.127 226.373 48.2479C227.252 47.3689 228.444 46.875 229.688 46.875H257.812C270.741 46.875 281.25 57.3844 281.25 70.3125V257.812C281.25 270.741 270.741 281.25 257.812 281.25ZM42.1875 56.25C34.4344 56.25 28.125 62.5594 28.125 70.3125V257.812C28.125 265.566 34.4344 271.875 42.1875 271.875H257.812C265.566 271.875 271.875 265.566 271.875 257.812V70.3125C271.875 62.5594 265.566 56.25 257.812 56.25H234.375V65.625C234.375 75.9656 225.966 84.375 215.625 84.375C205.284 84.375 196.875 75.9656 196.875 65.625V56.25H103.125V65.625C103.125 75.9656 94.7156 84.375 84.375 84.375C74.0344 84.375 65.625 75.9656 65.625 65.625V56.25H42.1875Z" fill="#073182"/>
<path d="M47.6875 225.375H141.438C142.681 225.375 143.873 224.881 144.752 224.002C145.631 223.123 146.125 221.931 146.125 220.688C146.125 219.444 145.631 218.252 144.752 217.373C143.873 216.494 142.681 216 141.438 216H47.6875C46.4443 216 45.252 216.494 44.3729 217.373C43.4939 218.252 43 219.444 43 220.688C43 221.931 43.4939 223.123 44.3729 224.002C45.252 224.881 46.4443 225.375 47.6875 225.375Z" fill="#073182"/>
<path d="M23.6875 103.375H276.812C278.056 103.375 279.248 102.881 280.127 102.002C281.006 101.123 281.5 99.9307 281.5 98.6875C281.5 97.4443 281.006 96.252 280.127 95.3729C279.248 94.4939 278.056 94 276.812 94H23.6875C22.4443 94 21.252 94.4939 20.3729 95.3729C19.4939 96.252 19 97.4443 19 98.6875C19 99.9307 19.4939 101.123 20.3729 102.002C21.252 102.881 22.4443 103.375 23.6875 103.375Z" fill="#073182"/>
</svg>
