<svg width="240" height="240" viewBox="0 0 240 240" fill="none" xmlns="http://www.w3.org/2000/svg">
<rect x="4" y="4" width="232" height="232" rx="116" stroke="#FFF6F7" stroke-width="8" stroke-linecap="square" stroke-dasharray="32 28"/>
<path d="M209.809 95.9359C223.099 145.536 193.664 196.518 144.064 209.809C94.4642 223.099 43.4817 193.664 30.1914 144.064C16.9012 94.4642 46.336 43.4817 95.9359 30.1914C145.536 16.9012 196.518 46.336 209.809 95.9359Z" stroke="#FFF6F7" stroke-width="2"/>
<path d="M215.474 73.9655C218.164 79.5598 220.396 85.4677 222.113 91.6551L218.258 92.7242C218.34 93.0179 218.42 93.3123 218.499 93.6073C218.578 93.9023 218.656 94.1973 218.732 94.4924L222.605 93.4911C224.212 99.7076 225.232 105.94 225.7 112.13L221.712 112.431C221.757 113.036 221.798 113.64 221.832 114.244L225.826 114.014C226.193 120.383 225.976 126.699 225.214 132.899L221.244 132.411C221.17 133.013 221.091 133.614 221.006 134.213L224.967 134.773C224.079 141.055 222.631 147.211 220.661 153.17L216.864 151.915C216.673 152.491 216.478 153.065 216.277 153.637L220.052 154.96C217.962 160.924 215.346 166.683 212.245 172.166L208.764 170.196C208.465 170.725 208.161 171.25 207.853 171.773L211.299 173.804C208.102 179.231 204.423 184.375 200.302 189.167L197.269 186.56C196.874 187.019 196.474 187.476 196.071 187.929L199.057 190.59C194.881 195.276 190.274 199.608 185.277 203.517L182.812 200.367C182.335 200.74 181.855 201.109 181.37 201.474L183.778 204.668C178.79 208.428 173.428 211.774 167.729 214.641L165.931 211.067C165.391 211.339 164.848 211.606 164.301 211.869L166.034 215.474C160.44 218.164 154.532 220.396 148.345 222.113L147.276 218.258C146.982 218.34 146.688 218.42 146.393 218.499C146.098 218.578 145.803 218.656 145.508 218.732L146.509 222.605C140.292 224.212 134.06 225.232 127.87 225.7L127.569 221.712C126.964 221.757 126.36 221.798 125.756 221.832L125.986 225.826C119.617 226.193 113.301 225.976 107.101 225.214L107.589 221.244C106.987 221.17 106.386 221.091 105.787 221.006L105.227 224.967C98.9445 224.079 92.7894 222.631 86.8301 220.661L88.0855 216.864C87.5093 216.673 86.935 216.478 86.3627 216.277L85.0398 220.052C79.0756 217.962 73.3172 215.346 67.8344 212.245L69.8036 208.764C69.2753 208.465 68.7497 208.161 68.2268 207.853L66.1961 211.299C60.7692 208.102 55.6248 204.423 50.8326 200.302L53.4404 197.269C52.9805 196.874 52.524 196.474 52.071 196.071L49.4096 199.057C44.724 194.881 40.3923 190.274 36.4826 185.277L39.6331 182.812C39.2599 182.335 38.8908 181.855 38.5258 181.37L35.3316 183.778C31.5716 178.79 28.2259 173.428 25.3592 167.729L28.9326 165.931C28.6608 165.391 28.3935 164.848 28.1308 164.301L24.5258 166.034C21.8361 160.44 19.6036 154.532 17.8873 148.345L21.7417 147.276C21.6603 146.982 21.58 146.688 21.501 146.393C21.4219 146.098 21.3443 145.803 21.268 145.508L17.3953 146.509C15.788 140.292 14.7675 134.06 14.2997 127.87L18.2883 127.569C18.2426 126.964 18.2024 126.36 18.1676 125.756L14.1742 125.986C13.8074 119.617 14.0238 113.301 14.786 107.101L18.7561 107.589C18.8301 106.987 18.9095 106.386 18.9941 105.787L15.0334 105.227C15.9205 98.9445 17.3687 92.7894 19.3386 86.8301L23.1365 88.0855C23.3269 87.5093 23.5225 86.935 23.723 86.3627L19.9481 85.0398C22.0381 79.0756 24.6538 73.3172 27.7548 67.8344L31.2365 69.8036C31.5353 69.2753 31.8388 68.7497 32.1469 68.2268L28.7006 66.1961C31.8984 60.7692 35.5775 55.6247 39.6976 50.8326L42.7307 53.4404C43.1261 52.9805 43.5257 52.524 43.9294 52.071L40.9433 49.4096C45.1192 44.724 49.7257 40.3923 54.7232 36.4826L57.1879 39.6331C57.6648 39.2599 58.1454 38.8908 58.6297 38.5258L56.2219 35.3316C61.21 31.5716 66.5722 28.2259 72.2711 25.3592L74.0686 28.9326C74.6089 28.6608 75.1522 28.3935 75.6988 28.1308L73.9655 24.5258C79.5598 21.8361 85.4677 19.6036 91.6551 17.8873L92.7242 21.7417C93.0179 21.6603 93.3123 21.58 93.6073 21.501C93.9023 21.4219 94.1973 21.3443 94.4924 21.268L93.4911 17.3953C99.7076 15.788 105.94 14.7675 112.13 14.2997L112.431 18.2883C113.036 18.2426 113.64 18.2024 114.244 18.1676L114.014 14.1742C120.383 13.8074 126.699 14.0238 132.899 14.786L132.411 18.7561C133.013 18.8301 133.614 18.9095 134.213 18.9941L134.773 15.0334C141.055 15.9205 147.211 17.3687 153.17 19.3386L151.915 23.1365C152.491 23.3269 153.065 23.5225 153.637 23.723L154.96 19.9481C160.924 22.0381 166.683 24.6538 172.166 27.7548L170.196 31.2365C170.725 31.5353 171.25 31.8388 171.773 32.1469L173.804 28.7006C179.231 31.8984 184.375 35.5775 189.167 39.6976L186.56 42.7307C187.019 43.1261 187.476 43.5257 187.929 43.9294L190.59 40.9433C195.276 45.1192 199.608 49.7257 203.517 54.7232L200.367 57.1879C200.74 57.6648 201.109 58.1454 201.474 58.6297L204.668 56.2219C208.428 61.21 211.774 66.5722 214.641 72.2711L211.067 74.0686C211.339 74.6089 211.606 75.1522 211.869 75.6988L215.474 73.9655Z" stroke="#FFF6F7" stroke-width="8" stroke-dasharray="2 20"/>
</svg>
