<svg width="248" height="248" viewBox="0 0 248 248" fill="none" xmlns="http://www.w3.org/2000/svg">
<rect x="2" y="2" width="244" height="244" rx="122" stroke="#FDECE3" stroke-width="4"/>
<rect x="24" y="24.5" width="200" height="199" rx="99.5" fill="#FDECE3"/>
<path d="M124 15C138.445 15 152.749 17.8452 166.095 23.3733C179.441 28.9013 191.567 37.0038 201.782 47.2183C211.996 57.4327 220.099 69.559 225.627 82.9048C231.155 96.2507 234 110.555 234 125C234 139.445 231.155 153.749 225.627 167.095C220.099 180.441 211.996 192.567 201.782 202.782C191.567 212.996 179.441 221.099 166.095 226.627C152.749 232.155 138.445 235 124 235C109.555 235 95.2506 232.155 81.9048 226.627C68.559 221.099 56.4327 212.996 46.2182 202.782C36.0038 192.567 27.9012 180.441 22.3732 167.095C16.8452 153.749 14 139.445 14 125C14 110.555 16.8452 96.2506 22.3733 82.9048C27.9013 69.559 36.0038 57.4326 46.2183 47.2182C56.4328 37.0038 68.5591 28.9012 81.9049 23.3732C95.2507 17.8452 109.555 15 124 15L124 15Z" stroke="#FDECE3" stroke-width="4" stroke-linecap="square" stroke-dasharray="20 20"/>
</svg>
