<svg width="240" height="188" viewBox="0 0 240 188" fill="none" xmlns="http://www.w3.org/2000/svg">
<path d="M19.8066 182.332C8.6494 164.398 2.51045 143.798 2.03047 122.682C1.55049 101.565 6.74707 80.7076 17.0778 62.2849C27.4086 43.8623 42.4948 28.5502 60.7619 17.9468C79.0291 7.34344 99.8074 1.8375 120.928 2.00365C142.049 2.16981 162.738 8.00197 180.836 18.8914C198.934 29.7809 213.778 45.3284 223.817 63.9113C233.857 82.4942 238.725 103.431 237.913 124.537C237.101 145.643 230.638 166.144 219.2 183.901" stroke="#F9E5E9" stroke-width="4"/>
<path d="M28.381 177.184C18.1401 160.776 12.4934 141.919 12.0309 122.582C11.5684 103.246 16.3071 84.1409 25.7519 67.2621C35.1967 50.3833 49.0009 36.3506 65.7225 26.63C82.444 16.9095 101.469 11.8579 120.81 12.003C140.151 12.1481 159.099 17.4846 175.672 27.4549C192.246 37.4252 205.838 51.6634 215.029 68.6821C224.219 85.7007 228.671 104.875 227.918 124.202C227.166 143.529 221.237 162.299 210.751 178.552" stroke="#F9E5E9" stroke-width="4" stroke-dasharray="4 20"/>
<path d="M21.5339 166.748C13.0626 148.905 9.59888 129.096 11.513 109.437C13.4272 89.7778 20.6473 71.0084 32.4015 55.1347C44.1558 39.2609 60.0025 26.8794 78.248 19.3135C96.4934 11.7476 116.452 9.28167 135.99 12.1792" stroke="#F9E5E9" stroke-width="2" stroke-dasharray="8 20"/>
</svg>
