<svg width="240" height="240" viewBox="0 0 240 240" fill="none" xmlns="http://www.w3.org/2000/svg">
<mask id="path-1-inside-1_15_311" fill="white">
<path d="M0 120C0 53.7258 53.7258 0 120 0C186.274 0 240 53.7258 240 120C240 186.274 186.274 240 120 240C53.7258 240 0 186.274 0 120Z"/>
</mask>
<path d="M-4 -8H244L236 8H4L-4 -8ZM244 248H-4L4 232H236L244 248ZM-4 248V-8L4 8V232L-4 248ZM244 -8V248L236 232V8L244 -8Z" fill="#F6EFE9" mask="url(#path-1-inside-1_15_311)"/>
<circle cx="120" cy="120" r="113" stroke="#F6EFE9" stroke-width="4" stroke-linecap="square"/>
<circle cx="120" cy="120" r="104" stroke="#F6EFE9" stroke-width="8" stroke-dasharray="2 26"/>
</svg>
