<svg width="240" height="240" viewBox="0 0 240 240" fill="none" xmlns="http://www.w3.org/2000/svg">
<rect x="1" y="1" width="238" height="238" rx="119" stroke="#FFF2F1" stroke-width="2"/>
<circle cx="115" cy="115" r="114" transform="matrix(-1 0 0 1 235 5)" stroke="#FFF2F1" stroke-width="2" stroke-dasharray="20 20"/>
<path d="M6.11778 103.989C4.58616 114.866 4.63391 125.613 6.08931 135.993L8.06994 135.715C8.25291 137.021 8.45854 138.32 8.68645 139.613L6.71683 139.96C8.59574 150.618 11.9632 160.85 16.6279 170.393L18.4247 169.515C19.0023 170.696 19.6002 171.867 20.218 173.027L18.4528 173.967C23.4913 183.427 29.8286 192.149 37.2678 199.864L38.7075 198.476C39.6196 199.422 40.5485 200.352 41.4939 201.267L40.1033 202.704C47.738 210.09 56.4288 216.454 65.9843 221.535L66.9232 219.769C68.0823 220.385 69.2544 220.982 70.4391 221.559L69.5629 223.357C78.9857 227.949 89.1917 231.315 100.009 233.22L100.356 231.25C101.005 231.364 101.656 231.473 102.309 231.577C102.962 231.68 103.615 231.778 104.267 231.87L103.988 233.85C114.865 235.382 125.612 235.334 135.992 233.878L135.715 231.898C137.02 231.715 138.319 231.509 139.612 231.281L139.959 233.251C150.617 231.372 160.849 228.005 170.392 223.34L169.514 221.543C170.695 220.965 171.866 220.368 173.026 219.75L173.966 221.515C183.426 216.476 192.148 210.139 199.863 202.7L198.475 201.26C199.421 200.348 200.351 199.419 201.266 198.474L202.703 199.864C210.089 192.23 216.453 183.539 221.534 173.983L219.768 173.045C220.384 171.885 220.981 170.713 221.558 169.529L223.356 170.405C227.948 160.982 231.314 150.776 233.219 139.959L231.249 139.612C231.363 138.963 231.472 138.312 231.576 137.659C231.679 137.006 231.777 136.353 231.869 135.7L233.849 135.979C235.381 125.103 235.333 114.356 233.877 103.976L231.897 104.253C231.714 102.948 231.508 101.649 231.28 100.356L233.25 100.009C231.371 89.3511 228.004 79.119 223.339 69.5757L221.542 70.454C220.964 69.2723 220.367 68.1013 219.749 66.9416L221.514 66.0014C216.475 56.5422 210.138 47.8196 202.699 40.1047L201.259 41.4929C200.347 40.547 199.418 39.6166 198.473 38.702L199.863 37.2646C192.229 29.8791 183.538 23.5146 173.982 18.4342L173.044 20.2001C171.884 19.5839 170.712 18.9868 169.528 18.4095L170.404 16.6116C160.981 12.0197 150.775 8.65336 139.958 6.74904L139.611 8.71875C138.962 8.60454 138.311 8.49567 137.658 8.3922C137.005 8.28873 136.352 8.19108 135.699 8.09922L135.978 6.11876C125.102 4.58713 114.355 4.63488 103.975 6.09029L104.252 8.07091C102.947 8.25389 101.648 8.45951 100.355 8.68743L100.008 6.7178C89.3502 8.59672 79.118 11.9641 69.5748 16.6289L70.4531 18.4257C69.2713 19.0033 68.1004 19.6012 66.9406 20.2189L66.0004 18.4537C56.5413 23.4923 47.8186 29.8296 40.1037 37.2688L41.4919 38.7085C40.546 39.6206 39.6156 40.5495 38.7011 41.4949L37.2636 40.1043C29.8781 47.739 23.5136 56.4298 18.4332 65.9853L20.1992 66.9242C19.5829 68.0833 18.9859 69.2554 18.4086 70.44L16.6107 69.5639C12.0187 78.9867 8.65239 89.1927 6.74807 100.01L8.71778 100.357C8.60356 101.006 8.49469 101.657 8.39122 102.31C8.28775 102.963 8.19011 103.616 8.09824 104.268L6.11778 103.989Z" stroke="#FFF2F1" stroke-width="4" stroke-dasharray="4 32"/>
</svg>
