<svg width="250" height="250" viewBox="0 0 250 250" fill="none" xmlns="http://www.w3.org/2000/svg">
<mask id="path-1-inside-1_727_61" fill="white">
<path d="M250 125C250 194.036 194.036 250 125 250C55.9644 250 0 194.036 0 125C0 55.9644 55.9644 0 125 0C194.036 0 250 55.9644 250 125ZM17.8499 125C17.8499 184.177 65.8226 232.15 125 232.15C184.177 232.15 232.15 184.177 232.15 125C232.15 65.8226 184.177 17.8499 125 17.8499C65.8226 17.8499 17.8499 65.8226 17.8499 125Z"/>
</mask>
<path d="M250 125C250 194.036 194.036 250 125 250C55.9644 250 0 194.036 0 125C0 55.9644 55.9644 0 125 0C194.036 0 250 55.9644 250 125ZM17.8499 125C17.8499 184.177 65.8226 232.15 125 232.15C184.177 232.15 232.15 184.177 232.15 125C232.15 65.8226 184.177 17.8499 125 17.8499C65.8226 17.8499 17.8499 65.8226 17.8499 125Z" fill="#242920" stroke="#F0F2EF" stroke-width="8" stroke-dasharray="44 4" mask="url(#path-1-inside-1_727_61)"/>
<rect x="17" y="17" width="216" height="216" rx="107.5" fill="#8A987C"/>
</svg>
