<svg width="240" height="240" viewBox="0 0 240 240" fill="none" xmlns="http://www.w3.org/2000/svg">
<rect x="1" y="1" width="238" height="238" rx="119" stroke="#F9F6F0" stroke-width="2"/>
<path d="M231.27 132.678C231.208 133.22 231.142 133.762 231.073 134.302L233.057 134.557C232.051 142.386 230.27 149.931 227.8 157.125L225.909 156.475C223.41 163.753 220.194 170.664 216.352 177.134L218.072 178.155C214.667 183.889 210.78 189.283 206.472 194.288L204.956 192.983C204.248 193.807 203.527 194.62 202.795 195.422L204.272 196.77C202.781 198.404 201.244 199.994 199.663 201.537L198.266 200.106C197.488 200.864 196.7 201.612 195.901 202.347L197.256 203.818C195.629 205.316 193.96 206.767 192.25 208.168L190.983 206.621C190.143 207.309 189.293 207.985 188.433 208.649L189.655 210.232C183.54 214.953 176.947 219.058 169.975 222.466L169.097 220.67C162.308 223.989 155.155 226.635 147.733 228.533L148.229 230.471C141.867 232.098 135.312 233.184 128.62 233.684L128.471 231.69C127.39 231.77 126.306 231.836 125.218 231.885L125.309 233.883C123.11 233.983 120.898 234.019 118.675 233.991L118.701 231.991C117.62 231.977 116.537 231.947 115.45 231.902L115.367 233.9C113.171 233.809 110.965 233.654 108.751 233.433L108.949 231.443C108.408 231.389 107.865 231.332 107.322 231.27C106.78 231.208 106.238 231.142 105.698 231.073L105.443 233.057C97.6141 232.051 90.0687 230.27 82.8755 227.8L83.5249 225.909C76.2471 223.41 69.3364 220.194 62.8661 216.352L61.845 218.072C56.111 214.667 50.7168 210.78 45.712 206.472L47.0167 204.956C46.1929 204.248 45.3799 203.527 44.5779 202.795L43.2298 204.272C41.5955 202.781 40.006 201.244 38.4631 199.663L39.8945 198.266C39.1357 197.488 38.3884 196.7 37.6527 195.901L36.1815 197.256C34.6835 195.629 33.2332 193.96 31.8323 192.25L33.3794 190.983C32.6911 190.143 32.0149 189.293 31.3512 188.433L29.7681 189.655C25.0468 183.54 20.942 176.947 17.5337 169.975L19.3304 169.097C16.0115 162.308 13.3649 155.155 11.467 147.733L9.52935 148.229C7.90245 141.867 6.81582 135.312 6.31593 128.62L8.31037 128.471C8.22961 127.39 8.16444 126.306 8.11506 125.218L6.11711 125.309C6.01733 123.11 5.98089 120.898 6.0094 118.675L8.00924 118.701C8.0231 117.62 8.05259 116.537 8.0979 115.45L6.09963 115.367C6.19123 113.171 6.34636 110.965 6.56656 108.751L8.55674 108.949C8.61063 108.408 8.66848 107.865 8.73033 107.322C8.79218 106.78 8.85781 106.238 8.92719 105.698L6.94349 105.443C7.94922 97.6141 9.72998 90.0687 12.1996 82.8755L14.0912 83.5249C16.5898 76.2471 19.8062 69.3364 23.6481 62.8661L21.9284 61.845C25.333 56.111 29.2202 50.7168 33.5276 45.712L35.0435 47.0167C35.7525 46.1929 36.4731 45.3799 37.2049 44.5779L35.7276 43.2298C37.2188 41.5955 38.7561 40.006 40.3372 38.4631L41.734 39.8945C42.5116 39.1357 43.2999 38.3884 44.0987 37.6527L42.7439 36.1815C44.3706 34.6835 46.04 33.2332 47.7498 31.8323L49.0173 33.3794C49.8574 32.6911 50.7074 32.0149 51.5671 31.3512L50.3448 29.7681C56.4597 25.0468 63.0532 20.942 70.0248 17.5337L70.9032 19.3304C77.6919 16.0115 84.8451 13.3649 92.2665 11.467L91.771 9.52935C98.1326 7.90245 104.688 6.81582 111.38 6.31593L111.529 8.31037C112.61 8.22961 113.694 8.16444 114.782 8.11506L114.691 6.11711C116.89 6.01733 119.102 5.98089 121.325 6.0094L121.299 8.00924C122.38 8.0231 123.463 8.05259 124.55 8.0979L124.633 6.09963C126.829 6.19123 129.035 6.34636 131.249 6.56656L131.051 8.55674C131.592 8.61063 132.135 8.66848 132.678 8.73033C133.22 8.79218 133.762 8.85781 134.302 8.92719L134.557 6.94349C142.386 7.94922 149.931 9.72998 157.125 12.1996L156.475 14.0912C163.753 16.5898 170.664 19.8062 177.134 23.6481L178.155 21.9284C183.889 25.3331 189.283 29.2202 194.288 33.5276L192.983 35.0435C193.807 35.7525 194.62 36.4731 195.422 37.2049L196.77 35.7276C198.404 37.2188 199.994 38.7561 201.537 40.3372L200.106 41.734C200.864 42.5116 201.612 43.2999 202.347 44.0987L203.818 42.7439C205.316 44.3706 206.767 46.04 208.168 47.7498L206.621 49.0173C207.309 49.8574 207.985 50.7074 208.649 51.5671L210.232 50.3448C214.953 56.4597 219.058 63.0532 222.466 70.0248L220.67 70.9032C223.989 77.6919 226.635 84.8451 228.533 92.2665L230.471 91.771C232.098 98.1326 233.184 104.688 233.684 111.38L231.69 111.529C231.77 112.61 231.836 113.694 231.885 114.782L233.883 114.691C233.983 116.89 234.019 119.102 233.991 121.325L231.991 121.299C231.977 122.38 231.947 123.463 231.902 124.55L233.9 124.633C233.809 126.829 233.654 129.035 233.433 131.249L231.443 131.051C231.389 131.592 231.332 132.135 231.27 132.678Z" stroke="#F9F6F0" stroke-width="4" stroke-dasharray="4 28 28 24 4 8 4 8"/>
<circle cx="120" cy="120" r="112" stroke="#F9F6F0" stroke-width="4" stroke-dasharray="8 16 24 32"/>
</svg>
